<svg id="Graphic_Elements" data-name="Graphic Elements" xmlns="http://www.w3.org/2000/svg" viewBox="0 0 1200 1200"><path d="M387.05,813.09a73.1,73.1,0,0,0-3-9.93l3.18-1.64,17.25-8.68c11.54-5.79,23.1-11.57,34.58-17.59,5.74-3,11.46-6.06,17.12-9.41,1.42-.83,2.83-1.65,4.25-2.61l2.11-1.38,2.19-1.76a24.66,24.66,0,0,0,3.33-4.17l2.75-4c7.11-10.82,13.95-21.74,20.77-32.7-8,10.13-16,20.25-24.22,30.13L464.25,753a19.91,19.91,0,0,1-3,3.06l-1.73,1.08-2.06,1c-1.35.72-2.8,1.37-4.25,2-5.77,2.59-11.74,5-17.71,7.3-12,4.66-24,9.11-36.13,13.58l-18.19,6.74-4.25,1.62a66.52,66.52,0,0,0-8.42-10.23,35.23,35.23,0,0,0,14.93-17.23,34.64,34.64,0,0,0-2.77-32.14l1.15.46v.14l.44-.37a11.48,11.48,0,0,1,1.09-.84c.78-.57,1.59-1.13,2.44-1.68,1.66-1.11,3.38-2.18,5.1-3.24,3.45-2.13,6.95-4.2,10.46-6.24q10.55-6.13,21.26-12l2.69-1.45a8.91,8.91,0,0,0,2.64-2c1.46-1.46,2.85-2.95,4.24-4.44l8.29-9,12.84-14.59-13.62,13.85L431,697c-1.45,1.41-2.91,2.84-4.39,4.19a6.59,6.59,0,0,1-2.26,1.58l-2.75,1.33q-11,5.39-21.84,11.08Q394.34,718,389,721c-1.79,1-3.58,2-5.36,3.08-.88.53-1.77,1.08-2.67,1.67a14.8,14.8,0,0,0-1.37,1,8.85,8.85,0,0,0-.71.57,30.4,30.4,0,0,0-25.26-11.44c-.09-.5-.19-1-.29-1.46-.23-1-.49-2.07-.76-3.07-.54-2-1.12-4-1.72-6q-1.8-5.9-3.73-11.72-3.86-11.68-8-23.25l-1-2.88a8.51,8.51,0,0,1-.45-1.39,12.19,12.19,0,0,1-.11-1.32c-.1-2-.14-4.06-.18-6.1l-.11-12.26V621.91l-1.08,24.51-.43,12.27c-.05,2-.11,4.09-.09,6.17a12.92,12.92,0,0,0,.1,1.74,9.18,9.18,0,0,0,.43,1.54l.9,2.93q3.57,11.71,6.92,23.51c1.1,3.93,2.18,7.86,3.19,11.8.5,2,1,3.94,1.43,5.9.21,1,.41,2,.58,2.91.08.4.13.78.18,1.16a34.53,34.53,0,0,0-25.54,21.12,35.34,35.34,0,0,0-1.47,22.79,67,67,0,0,0-15.71,1.94l-2.79-6.68-7.72-18.23C291,725.15,285.92,713,281,700.84c-2.46-6.09-4.86-12.2-7.07-18.32a86.64,86.64,0,0,1-2.84-9,7.3,7.3,0,0,1-.33-2c0-.65,0-1.53.07-2.29l.35-4.87c1.11-13.09,2.56-26.22,4-39.32-2.88,12.88-5.74,25.74-8.29,38.74l-.9,4.92c-.12.88-.27,1.64-.36,2.63a12.05,12.05,0,0,0,.1,2.91,86.76,86.76,0,0,0,2,10.12c1.57,6.5,3.31,12.89,5.11,19.26,3.6,12.75,7.39,25.41,11.18,38l5.69,18.94,2.1,7.1c-1.34.67-2.65,1.4-3.94,2.16C252.37,731.76,162.3,665.52,91.55,676c-24.47,3.6-39.14,17.06-41.28,37.88C45.91,756,95.87,820.63,147.45,839.6c3,1.11,6.14,2,9.29,2.88-2.28.6-4.57,1.19-6.85,1.81-5.13,1.4-10.25,2.87-15.37,4.46-2.56.79-5.12,1.63-7.69,2.57-1.28.46-2.58.94-3.9,1.53a18.63,18.63,0,0,0-2,1c-.37.2-.68.35-1.08.59a15.5,15.5,0,0,0-1.41,1.13l-.33.31-.16.2-.31.38-.62.78-1.24,1.56-2.47,3.1L98.48,880.55c-6.58,8.27-13.14,16.58-19.81,24.76-.84,1-1.69,2.06-2.51,2.93a20,20,0,0,1-3,2.23,66.34,66.34,0,0,1-7,3.63c-4.8,2.17-9.74,4.08-14.74,5.81,5.11-1.39,10.17-3,15.15-4.82a67,67,0,0,0,7.34-3.22,21.24,21.24,0,0,0,3.49-2.24c1.08-1,1.94-1.94,2.87-2.9,7.25-7.74,14.35-15.58,21.48-23.4l16-17.61,2.67-2.93,1.33-1.46.67-.73.33-.36.17-.18H123l.16-.06.7-.3a11.09,11.09,0,0,1,1.58-.62c1.12-.41,2.33-.78,3.57-1.13,2.44-.71,5-1.35,7.5-2,5.08-1.21,10.21-2.31,15.37-3.35,11-2.22,22.11-4.25,33.23-6.2,1.9.07,3.81.1,5.72.1,18.26,0,36.27-2.94,51.49-6.53-2.13,3.77-4.25,7.56-6.31,11.44-2.77.57-5.53,1.18-8.28,1.85a159.62,159.62,0,0,0-32.18,11.34,92.59,92.59,0,0,0-15,9.22l-3.48,2.91c-1.1,1.07-2.18,2.18-3.26,3.28s-2,2.46-3,3.69-1.58,2.22-2.38,3.34c-6.15,8.75-12.79,17.35-19.48,25.87q-20.19,25.53-41.55,50.24-5.33,6.16-10.79,12.21c-1.8,2-3.67,4-5.51,6-1,.93-1.9,1.93-2.84,2.81l-1.41,1.2c-.56.28-1.06.63-1.68.88a124.27,124.27,0,0,1-15.32,5.2c-5.23,1.5-10.5,2.88-15.78,4.18,5.36-.95,10.71-2,16-3.14a125.6,125.6,0,0,0,15.91-4.26c.66-.22,1.32-.59,2-.89s1.2-.88,1.81-1.32c1.1-.9,2.09-1.82,3.15-2.73,2-1.88,4-3.73,6-5.65,3.93-3.8,7.79-7.65,11.62-11.54q23-23.29,45-47.61c7.31-8.14,14.54-16.34,21.51-25,.85-1,1.78-2.26,2.57-3.16s1.48-1.71,2.33-2.51l2.65-2.34,2.94-2.14a81.26,81.26,0,0,1,13.31-7,146.65,146.65,0,0,1,26.5-7.68c-4.07,8.51-8,17.19-11.63,26.1-33.74,82.25-47,178.92-5.21,196.08a31.63,31.63,0,0,0,12.16,2.37c16.63,0,36-12.08,56.87-35.61,23.81-26.87,46.88-65.93,65-110q4.95-12.07,9.2-24.16a143.23,143.23,0,0,1,10.76,20,81.89,81.89,0,0,1,4.55,14.34l.58,3.59.25,3.52c0,1.17-.09,2.28-.11,3.43s-.26,2.71-.38,4.05c-1.11,11-1.71,21.94-2.23,32.87q-1.43,32.78-1.43,65.48c0,5.46,0,10.91.17,16.38,0,2.73.17,5.47.28,8.21.11,1.39.17,2.74.32,4.16.12.74.21,1.48.37,2.2s.48,1.41.79,2A123.26,123.26,0,0,0,376,1118q4.47,6.84,9.22,13.5-4.29-7-8.31-14.06a123.59,123.59,0,0,1-7.25-14.46c-.26-.61-.38-1.21-.58-1.81l-.16-1.84c-.05-1.28,0-2.67,0-4,.07-2.71.12-5.41.25-8.12.23-5.42.55-10.85.91-16.28q2.13-32.54,5.7-64.93c1.22-10.77,2.54-21.55,4.3-32.1.22-1.36.46-2.54.66-4s.41-3.16.47-4.71,0-3.09,0-4.63l-.43-4.51a93.47,93.47,0,0,0-4.18-17.08,159.75,159.75,0,0,0-14.94-30.67c-.61-1-1.26-1.94-1.88-2.91q2.55-8.28,4.73-16.46,7.56,10.23,15.07,20.5C392,926.45,404.3,943.6,416.07,961c2.95,4.36,5.83,8.76,8.6,13.18,1.37,2.21,2.73,4.44,4,6.66.63,1.12,1.23,2.23,1.74,3.31a13.87,13.87,0,0,1,.69,1.55l.28.71.08.16.05,0-.06,1.72-.23,5.94-1,23.79c-.41,10.57-.87,21.14-1.15,31.74,0,1.33-.07,2.63,0,4.08a21,21,0,0,0,.91,4,67.2,67.2,0,0,0,3,7.45c2.24,4.82,4.73,9.49,7.39,14.07-2.34-4.75-4.51-9.57-6.4-14.49a64,64,0,0,1-2.4-7.46,20,20,0,0,1-.6-3.73c0-1.19.16-2.55.27-3.84,1-10.51,2.15-21,3.28-31.55l3-27.61.22-2,.1-1,.05-.5,0-.25,0-.44a15.48,15.48,0,0,0-.2-1.8c-.12-.46-.24-.78-.36-1.18a18.62,18.62,0,0,0-.76-2.13c-.54-1.35-1.11-2.6-1.7-3.83-1.17-2.48-2.41-4.87-3.67-7.23q-3.8-7.1-7.81-14-4.17-7.15-8.41-14.24a118.29,118.29,0,0,0,28.54,18.81c18,8.18,40,12,62.05,12,39.2,0,78.49-12.09,95.45-33.24,13.09-16.34,12.11-36.21-2.78-56C553.62,824.64,436.39,809.48,387.05,813.09Z" style="fill:#fff;stroke:#1d1d1b;stroke-linecap:round;stroke-linejoin:round;stroke-width:1.1956521335800765px"/><path d="M1080.8,558.87c2.77.74,5.52,1.51,8.24,2.35,1.36.41,2.71.84,4,1.31.66.23,1.31.47,1.9.74a5.09,5.09,0,0,1,.84.39l.37.18.09,0c3.51,4.26,7.17,8.93,10.76,13.38l10.88,13.46c.47.55.91,1.1,1.46,1.67a11.27,11.27,0,0,0,1.82,1.33,35.6,35.6,0,0,0,3.88,2c2.65,1.18,5.34,2.21,8.07,3.14-2.66-1.11-5.28-2.32-7.81-3.66s-5.08-2.71-6.5-5.2l-9.93-14.14c-3.33-4.76-6.48-9.4-10-14.27-.23-.23-.48-.45-.73-.66s-.37-.24-.57-.36a7.93,7.93,0,0,0-1.08-.6c-.69-.37-1.38-.68-2.06-1-1.37-.6-2.73-1.14-4.1-1.66-2.73-1-5.46-2-8.21-3-2.15-.73-4.32-1.4-6.48-2.12a63.2,63.2,0,0,0,16.62-2.45c29.53-8.8,58.64-42,57.68-65.84-.28-6.83-3.48-18.86-21.78-22.74-39.51-8.4-93,27-112.44,46.31l-.49.48a41.1,41.1,0,0,0-3.67-2.31l-.44-.26.05-.13c.09-.21.17-.41.25-.62s.29-.73.44-1.08l4-9.74c2.67-6.5,5.35-13,7.92-19.59,1.28-3.3,2.54-6.59,3.68-10,.28-.84.57-1.69.8-2.59l.38-1.32.27-1.51a13.32,13.32,0,0,0-.12-2.9l-.32-2.65c-1-7-2-13.92-3.16-20.86.34,7,.66,14,.82,21l0,2.61a10.9,10.9,0,0,1-.14,2.33l-.33,1.06-.47,1.17c-.3.77-.67,1.56-1,2.34-1.45,3.13-3.05,6.24-4.67,9.33-3.25,6.19-6.62,12.35-10,18.5l-5,9.28-1.21,2.23a36.1,36.1,0,0,0-7.09-1.19,19.17,19.17,0,0,0-1.41-15.57A18.84,18.84,0,0,0,986,477.4a16.74,16.74,0,0,0-2.45-.9l.64-.22,0,.06,0-.32c0-.22.08-.46.15-.73.11-.51.25-1,.4-1.56.29-1.05.61-2.11.94-3.16.66-2.1,1.35-4.21,2.06-6.3q2.14-6.3,4.45-12.53l.59-1.56a4.94,4.94,0,0,0,.37-1.76l.16-3.35.18-6.66.25-13.32L993,438.38l-.47,6.64-.3,3.3a9.72,9.72,0,0,1-1,3q-2.58,6.15-5,12.37-1.21,3.1-2.36,6.25c-.38,1.05-.75,2.1-1.1,3.18-.18.53-.35,1.08-.5,1.64a8.91,8.91,0,0,0-.22.89c0,.17-.06.27-.09.49a16.67,16.67,0,0,0-8.32.6,16.5,16.5,0,0,0-6.15,3.75c-.22-.19-.44-.37-.64-.51-.47-.35-.95-.68-1.42-1-.93-.64-1.88-1.24-2.83-1.84q-2.85-1.77-5.73-3.48-5.75-3.42-11.58-6.7c-.92-.6-2.09-1-2.65-1.74-.76-.79-1.51-1.62-2.25-2.44l-4.43-5-8.77-10.08,8.32,10.46,4.21,5.19c.71.86,1.42,1.72,2.17,2.57a6.74,6.74,0,0,0,.66.68,6.5,6.5,0,0,0,.73.48l1.42.88c3.77,2.36,7.53,4.75,11.24,7.19,1.86,1.22,3.71,2.45,5.53,3.71.92.62,1.82,1.26,2.7,1.91.45.32.87.65,1.28,1l.49.42A18.85,18.85,0,0,0,963,500a19.26,19.26,0,0,0,7.57,9.91,36.52,36.52,0,0,0-5.77,6.4l-3.55-1.75-9.69-4.73c-6.45-3.15-12.89-6.31-19.27-9.55-3.19-1.63-6.36-3.28-9.45-5a46.66,46.66,0,0,1-4.4-2.7c-1.15-.72-2.15-2.42-3.24-3.79C911,483.11,907,477.33,903,471.55l25.57-44.29-42.27-73.21H812l-37.75-65.37H689.74L652.43,353.3H577.12l-37.31,64.62H464.36l-.3.52-1,1.66-.59,1c-.14-.31-.28-.64-.44-1s-.31-.88-.47-1.32l-.17-1.34c-.07-.94-.08-1.95-.13-2.92,0-2-.05-4,0-6,0-4,.13-8,.26-11.94q.75-23.88,2.54-47.7c.62-7.92,1.32-15.85,2.34-23.62.13-1,.27-1.86.38-3s.22-2.33.23-3.47l-.13-3.39-.42-3.29a68.45,68.45,0,0,0-3.49-12.4,123.77,123.77,0,0,0-14.18-25.68c.93-3.85,1.81-7.69,2.59-11.49q6,7.17,11.9,14.37c9.81,12,19.57,24,28.92,36.25,2.34,3.06,4.63,6.15,6.84,9.27,1.11,1.56,2.19,3.13,3.19,4.71.51.78,1,1.57,1.42,2.34a10.76,10.76,0,0,1,.57,1.11l.24.5.06.11,0,0v1.27l.09,4.35.29,17.44c.15,7.75.27,15.5.52,23.27,0,1,.05,1.92.17,3a15.91,15.91,0,0,0,.84,2.92,46.93,46.93,0,0,0,2.49,5.32c1.84,3.43,3.86,6.75,6,10-1.92-3.37-3.71-6.81-5.3-10.32a49.34,49.34,0,0,1-2.07-5.36,14.07,14.07,0,0,1-.59-2.7c0-.88,0-1.87,0-2.83.28-7.72.68-15.47,1.07-23.21l.58-11.61L509,337l.14-2.91.07-1.45,0-.73,0-.37a2,2,0,0,0,0-.51,12,12,0,0,0-.23-1.31c-.1-.32-.2-.55-.3-.84a14.93,14.93,0,0,0-.66-1.53c-.44-1-.92-1.85-1.4-2.73-1-1.76-2-3.45-3-5.13q-3.07-5-6.31-9.89c-2.54-3.84-5.15-7.61-7.74-11.39a87.44,87.44,0,0,0,22.82,13.48c11.26,4.34,24.43,6.36,37.83,6.36,31.12,0,63.48-10.85,76-28.45,8.76-12.33,7.2-26.64-4.39-40.3-35-41.3-121.3-47.37-157.12-42.64a53.14,53.14,0,0,0-2.68-7.54l2.29-1.36,12.25-7.08c8.19-4.72,16.4-9.45,24.55-14.33,4.07-2.45,8.12-4.92,12.12-7.61,1-.66,2-1.33,3-2.08l1.48-1.11,1.53-1.37a17.91,17.91,0,0,0,2.26-3.2l1.84-3.08c4.74-8.21,9.28-16.5,13.8-24.8-5.41,7.74-10.85,15.49-16.44,23.07l-2.11,2.8a15.09,15.09,0,0,1-2.08,2.37l-1.21.86-1.47.84c-1,.58-2,1.12-3,1.65-4.11,2.14-8.37,4.13-12.65,6.09-8.55,3.91-17.2,7.69-25.85,11.47l-13,5.7-3.11,1.4a49.19,49.19,0,0,0-6.57-7.12,26.07,26.07,0,0,0,10.14-30.43,24.34,24.34,0,0,0-3.29-6.24l.85.3V146l.31-.29c.21-.19.44-.39.69-.59l.07-.07c.55-.45,1.12-.89,1.71-1.33q1.77-1.32,3.6-2.59c2.43-1.7,4.9-3.36,7.38-5q7.45-4.93,15.05-9.67l1.9-1.18a6.46,6.46,0,0,0,1.85-1.58c1-1.13,2-2.27,2.92-3.43l5.68-6.93,11.22-14-11.82,13.46-6,6.67c-1,1.1-2,2.21-3,3.26a4.84,4.84,0,0,1-1.58,1.25l-2,1.09q-7.82,4.42-15.5,9-3.86,2.31-7.66,4.72c-1.27.8-2.53,1.62-3.78,2.48-.63.42-1.26.86-1.89,1.34-.21.14-.42.33-.64.51l-.32.26c-.17.15-.29.23-.5.44l-.41-.41a22.2,22.2,0,0,0-18.54-6.88h0v-.05c-.08-.36-.16-.72-.25-1q-.33-1.14-.69-2.22c-.48-1.45-1-2.86-1.51-4.28-1-2.83-2.12-5.63-3.22-8.42-2.21-5.59-4.48-11.13-6.81-16.66l-.88-2.07a6.74,6.74,0,0,1-.38-1c0-.21-.1-.61-.14-1-.16-1.46-.27-3-.39-4.45l-.6-9-1-18,.25,18,.21,9c.05,1.5.1,3,.2,4.52a8.31,8.31,0,0,0,.14,1.26,9.73,9.73,0,0,0,.38,1.12l.78,2.1q3.12,8.42,6.06,16.9c1,2.82,1.93,5.66,2.84,8.5.45,1.41.89,2.83,1.29,4.25.19.64.35,1.28.5,1.91l.05.19a8.3,8.3,0,0,1,.18.86,22.44,22.44,0,0,0-3.47,1.16,25.52,25.52,0,0,0-14.31,15.37,25.79,25.79,0,0,0-.1,16.73,49.67,49.67,0,0,0-11.41,2.09c-.77-1.59-1.55-3.17-2.34-4.77l-6.41-13c-4.27-8.66-8.53-17.32-12.65-26-2.05-4.35-4.07-8.72-5.95-13.1a66.69,66.69,0,0,1-2.46-6.48,5.63,5.63,0,0,1-.32-1.44c0-.47,0-1.12-.05-1.68l.05-3.58c.26-9.61.77-19.28,1.28-28.93-1.56,9.55-3.11,19.07-4.42,28.69l-.45,3.64c-.05.65-.13,1.21-.15,1.94a8.35,8.35,0,0,0,.2,2.12,63.51,63.51,0,0,0,1.88,7.32c1.43,4.69,3,9.29,4.56,13.87,3.17,9.17,6.48,18.28,9.79,27.36l5,13.62c.6,1.68,1.22,3.39,1.84,5.1-1.07.63-2.12,1.29-3.15,2-27.55-26.3-96-70.79-147.17-60.18-17.54,3.64-27.57,14-28.26,29.07-1.39,30.85,37.75,75.8,76.14,87.44a73,73,0,0,0,7.66,1.83c-1.93.63-3.87,1.25-5.8,1.9-3.7,1.25-7.38,2.54-11.06,3.92-1.84.69-3.68,1.41-5.52,2.2-.92.39-1.84.81-2.79,1.29a13.75,13.75,0,0,0-1.45.81c-.26.16-.48.28-.76.47a12.05,12.05,0,0,0-1,.89l-.33.39-.22.3L269,250l-.84,1.2-1.67,2.38-10,14.27c-4.47,6.34-8.91,12.69-13.45,19-.57.77-1.14,1.58-1.71,2.24a14.94,14.94,0,0,1-2.13,1.77,47.57,47.57,0,0,1-4.93,2.95c-3.42,1.79-6.95,3.4-10.53,4.88,3.68-1.24,7.31-2.61,10.88-4.17a50.5,50.5,0,0,0,5.23-2.67A16.48,16.48,0,0,0,242.3,290c.74-.77,1.34-1.51,2-2.25,5-6,9.83-12,14.72-18l7.31-9.05,3.66-4.52,1.82-2.26.92-1.12.45-.56.23-.28.11-.14h.05l.12-.05.5-.25a11.18,11.18,0,0,1,1.13-.52c.81-.35,1.67-.67,2.56-1,1.76-.62,3.58-1.2,5.41-1.74,3.66-1.1,7.37-2.13,11.1-3.11,8.68-2.27,17.43-4.39,26.19-6.44,14.17-.58,28.1-3.67,39.68-7.15-1.48,3-3,6-4.37,9.15a125.28,125.28,0,0,0-29.05,11.37,68.62,68.62,0,0,0-10.55,7.38l-2.42,2.28-2.24,2.54c-.72.89-1.36,1.89-2,2.83s-1.06,1.69-1.6,2.54c-4.13,6.66-8.61,13.23-13.15,19.75Q281.14,309,266.57,327.94c-2.43,3.16-4.87,6.3-7.37,9.4-1.24,1.56-2.52,3.06-3.79,4.59-.65.72-1.3,1.49-1.95,2.18l-1,.93c-.4.24-.75.51-1.19.72a91.45,91.45,0,0,1-11,4.45c-3.76,1.32-7.56,2.55-11.37,3.73q5.83-1.38,11.61-3A90.38,90.38,0,0,0,252,347.16a13.66,13.66,0,0,0,1.42-.73c.43-.32.84-.69,1.27-1,.77-.71,1.45-1.42,2.18-2.13,1.39-1.46,2.78-2.9,4.13-4.38,2.71-2.95,5.37-5.93,8-8.94q15.83-18,30.87-36.73c5-6.27,9.95-12.57,14.67-19.18.58-.8,1.21-1.73,1.75-2.42s1-1.31,1.6-1.93l1.84-1.83,2.06-1.69a60.43,60.43,0,0,1,9.43-5.7,107.73,107.73,0,0,1,19.06-6.73c-2.61,6.39-5.1,12.91-7.39,19.57C321.7,334.9,316.08,406.19,347.4,417a23.52,23.52,0,0,0,7.62,1.27c29.86,0,64.82-55.05,84.32-111.75,2-5.79,3.79-11.6,5.46-17.38l.3-1.09a104.94,104.94,0,0,1,9.19,15.46A60.72,60.72,0,0,1,458,313.86l.51,2.62.28,2.58c.05.85,0,1.66,0,2.5s-.12,2-.18,3c-.53,8.11-.7,16.11-.8,24.13q-.23,24,.6,48c.13,4,.3,8,.54,12,.09,2,.26,4,.41,6,.11,1,.19,2,.34,3,.1.54.19,1.09.32,1.61s.39,1,.63,1.47c.39.76.71,1.36,1,1.89l-34.58,59.89H351.74l-42.27,73.22L351.74,629h75.31l26.29,45.54.11.19,10.91,18.9h74.3L576.4,759h75.31L689,823.58h84.55l36.87-63.87H885.6l42.28-73.22-9.81-17c.93-1.49,1.83-3,2.67-4.54a35.88,35.88,0,0,0,1.87-4,11.81,11.81,0,0,0,.64-2.16c.09-.79.1-1.49.14-2.22l.45-17.3c.14-5.7.22-11.64.41-17.16l0-.08.18-.37a8.25,8.25,0,0,1,.43-.82c.32-.58.68-1.16,1.06-1.74.76-1.17,1.57-2.33,2.39-3.49q2.49-3.46,5.12-6.87c3.06-4,6.2-7.91,9.36-11.82,9.53-7.14,17.49-16.39,23.51-24.68.41,2,.82,3.93,1.28,5.92a93.21,93.21,0,0,0-11.91,19.9,50.23,50.23,0,0,0-2.85,9.13l-.39,2.44-.16,2.52c0,.84.06,1.72.09,2.58s.15,1.47.22,2.22c.6,5.8,1,11.7,1.25,17.59q.82,17.71.88,35.51c0,3,0,5.92-.06,8.87l-.14,4.43-.16,2.17-.15,1c-.12.32-.21.64-.37,1-2.59,5.2-6.08,10.11-9.43,15,3.68-4.67,7.43-9.22,10.48-14.47a10.55,10.55,0,0,0,.5-1.07c.11-.39.18-.79.27-1.19l.32-2.25.43-4.45c.26-3,.47-5.93.65-8.9q1.13-17.8,1.46-35.64c.09-6,.13-11.92-.09-18,0-.73-.08-1.56-.07-2.21s0-1.24.05-1.87l.26-1.91.44-1.93a44.45,44.45,0,0,1,3-7.64,81,81,0,0,1,8.14-12.63c1.38,5,2.88,9.91,4.56,14.88,8.33,24.58,19.54,46.6,31.57,62,11,14.08,21.53,21.33,30.85,21.33a17.35,17.35,0,0,0,5.55-.9c10.59-3.6,16.29-16.85,16.49-38.35.17-19.56-4.32-43.86-12.64-68.44-1.53-4.5-3.18-8.89-4.9-13.22a77.61,77.61,0,0,1,11.62,4.39,45,45,0,0,1,7,4.26l1.52,1.27,1.36,1.37c.43.46.78,1,1.18,1.44s.87,1.21,1.3,1.8c3.49,4.93,7.14,9.63,10.84,14.31q11.13,14,22.82,27.41,2.92,3.38,5.93,6.67c1,1.11,2,2.19,3,3.27.54.54,1.05,1.07,1.62,1.6.31.26.62.53.94.77s.7.41,1,.56c5.6,2.3,11.36,3.64,17.12,5.11-5.62-1.83-11.38-3.59-16.59-6.16-.33-.16-.59-.36-.89-.54l-.72-.69-1.45-1.62-2.8-3.44q-2.76-3.47-5.44-7-10.76-14.13-20.88-28.72c-3.35-4.86-6.67-9.76-9.71-14.73-.4-.63-.72-1.2-1.18-1.9s-1-1.44-1.49-2.1l-1.66-1.9-1.79-1.7a51.14,51.14,0,0,0-7.82-5.53,90.71,90.71,0,0,0-19-7.79c-1.26-2.85-2.56-5.66-3.9-8.39,4.5,1,9,1.95,13.5,3C1058.51,553.29,1069.72,555.91,1080.8,558.87ZM929.66,606.08c-1.6,2.41-3.19,4.84-4.72,7.32-.77,1.25-1.53,2.51-2.25,3.81-.36.65-.71,1.31-1.05,2a10.07,10.07,0,0,0-.49,1.13l-.23.63a8.26,8.26,0,0,0-.18,1c.19,6,.51,11.58.76,17.39l.71,17.26c.4,2.85-.87,5.43-2,8.09-.71,1.54-1.48,3.06-2.29,4.56l-32.33-56H811.31l-32.64-56.53,32.49-56.27h75.16L903,471.6c3.34,6.18,6.69,12.34,10.21,18.44l1.39,2.35c.26.41.47.77.79,1.21a6.09,6.09,0,0,0,1.09,1.16,48.94,48.94,0,0,0,4.43,3.45c3,2.1,6,4.11,9,6.08,6,3.95,12.12,7.81,18.2,11.65l9.11,5.74,3.44,2.19c-.21.5-.43,1-.62,1.52-28.35-3-89.57,2-115.12,31.86-12.18,14.22-7.4,25.71-3.47,31.3,9.61,13.66,33.76,22,57.27,22a81.18,81.18,0,0,0,28.56-4.8c1.26-.48,2.49-1,3.72-1.6C930.54,604.81,930.09,605.43,929.66,606.08Z" style="fill:#fff;stroke:#1d1d1b;stroke-linecap:round;stroke-linejoin:round;stroke-width:1.1956521335800765px"/><g id="Layer_1" data-name="Layer 1"><path d="M559.69,254.14c-4.27,1.19-8.5,2.13-12.76,3.1q-4.41,1-8.84,1.91L550,302.21a127.21,127.21,0,0,0,45.12-6.82L560.1,254Z" style="fill:#eea53a"/><path d="M602.05,292.63l-35.43-41.9-.41.29-.48.32,30.35,43.71C598.13,294.3,600.13,293.49,602.05,292.63Z" style="fill:#eea53a"/><path d="M527.21,254.67a11.54,11.54,0,0,0,2.64-.17l.74-.13-.29-.72h-.07a47.05,47.05,0,0,1-7-.83,178.94,178.94,0,0,1-22.09-6.27l-.42,2a210.46,210.46,0,0,0,20.48,5.3A44.19,44.19,0,0,0,527.21,254.67Z" style="fill:#eea53a"/><path d="M544.68,301.92c1.58.12,3.16.22,4.75.27l-15.56-39.5Z" style="fill:#eea53a"/><path d="M490.75,277.68l1.59-26.61c-2.91-2.08-5.82-4.18-8.69-6.33-3.42-2.54-6.84-5.07-10.21-7.68-2.21-1.68-4.39-3.39-6.58-5.11a53.58,53.58,0,0,1-3.27,7.36c-.32.91-.7,1.77-1.07,2.65C468.72,252,478.46,266,490.75,277.68Z" style="fill:#eea53a"/><path d="M494.17,280.87c7.41,6.55,15.66,12.16,24.57,15.6a90.2,90.2,0,0,0,24.48,5.33l-16.13-40.93H527a48.4,48.4,0,0,1-7-.83,176.06,176.06,0,0,1-20.47-5.73Z" style="fill:#eea53a"/><path d="M455.57,143.4l.32-.26h0a2.36,2.36,0,0,0-1.2.29l.41.41C455.28,143.63,455.4,143.55,455.57,143.4Z" style="fill:#eea53a"/><path d="M458.35,145.09c-.25.2-.48.4-.69.59l-.31.3v-.11l-.85-.29a24.34,24.34,0,0,1,3.29,6.24A13.87,13.87,0,0,0,458.35,145.09Z" style="fill:#eea53a"/><path d="M569.42,243.81l-.48.31.1.15.43-.25c3.73-2.22,7.48-4.43,11.28-6.58,2.12-1.19,4.25-2.38,6.41-3.51-.88-.44-1.79-.87-2.69-1.29-3.2,2.48-6.41,4.94-9.7,7.33C573,241.26,571.26,242.58,569.42,243.81Z" style="fill:#eea53a"/><path d="M571.23,247.43l31.24,45c8.69-4,15.75-9.05,20-15l.33-.51c1.56-6.93-.92-14.3-7.47-22-7-8.24-16.35-15-27-20.41-5.59,4.2-11,8.59-16.71,12.71Z" style="fill:#eea53a"/><path d="M489.61,233.5c3.48,2.16,6.92,4.39,10.35,6.64a250.83,250.83,0,0,0,24.49,6.5,44.32,44.32,0,0,0,6,.81,11.58,11.58,0,0,0,2.64-.17l3.16-.55,12.8-2.27,12.74-2.32,1.53-.31.54-.13.55-.22c.83-.38,1.79-.92,2.7-1.43l5.6-3.24c3-1.81,6.1-3.59,9.18-5.36-36.74-16.32-85.88-19.27-112-16.72a51.74,51.74,0,0,1-.45,6.43c3.12,1.84,6.23,3.69,9.31,5.59C482.41,229,486,231.22,489.61,233.5Z" style="fill:#eea53a"/><path d="M486.4,240.72c3,1.88,6,3.82,9,5.77l.16-2.63c-2.92-2.09-5.82-4.19-8.69-6.34-3.42-2.54-6.84-5.07-10.21-7.68-2.59-2-5.14-4-7.7-6-.33,1.8-.77,3.59-1.28,5.38,2.64,1.56,5.28,3.13,7.88,4.73C479.21,236.17,482.81,238.44,486.4,240.72Z" style="fill:#eea53a"/><path d="M562.9,246.92c-4.27,1.19-8.51,2.14-12.76,3.1s-8.5,1.91-12.8,2.72l-1,.18.12.42,9.32-1.66,12.74-2.32,1.53-.31.54-.13.56-.22c.78-.36,1.69-.87,2.57-1.37l-.45-.52Z" style="fill:#eea53a"/><path d="M369.17,206.45a57.53,57.53,0,0,1,2.42-5.88c-1.41,0-2.82,0-4.23,0-4.26,0-8.52-.13-12.78-.24-3.59-.07-7.17-.2-10.75-.35l-15.55,22.58a172.06,172.06,0,0,0,38.9-8.49A54.13,54.13,0,0,1,369.17,206.45Z" style="fill:#eea53a"/><path d="M296.06,189.45,268.67,205.6c1,.7,1.94,1.37,2.92,2Z" style="fill:#eea53a"/><path d="M366,362.74l1-14.49a50.26,50.26,0,0,1-18-13,25.52,25.52,0,0,0,2.51,14.5A26.28,26.28,0,0,0,366,362.74Z" style="fill:#eea53a"/><path d="M319.33,184.39A223.69,223.69,0,0,0,340,193.3l.94-1.89a179.18,179.18,0,0,1-21.27-8.64,47.83,47.83,0,0,1-6-3.62l-.06-.05-1.25.73a12.05,12.05,0,0,0,1.77,1.53A45.61,45.61,0,0,0,319.33,184.39Z" style="fill:#eea53a"/><path d="M380,322.3l1-14.38a54.67,54.67,0,0,1-20.15-14.35l-2.26-.78c-2.52,13.54,6.23,27.72,21,32.79,13.89,4.77,28.56-.07,35.52-10.86a23.25,23.25,0,0,0,.51-2.31l-2.8-1a52,52,0,0,1-9.92,1A56.38,56.38,0,0,1,388,310.34Z" style="fill:#eea53a"/><path d="M417.12,283.39a22.49,22.49,0,0,0,9.81-6.95l-5.19-1.79a48,48,0,0,1-7,.54,47.43,47.43,0,0,1-13.81-2.1l-6.85,10.2h0A34,34,0,0,0,417.12,283.39Z" style="fill:#eea53a"/><path d="M325.34,222.8l12.07-24.28a179.74,179.74,0,0,1-21-8.53,46.77,46.77,0,0,1-6-3.63l-.06,0-37.57,22.15A91.28,91.28,0,0,0,296.39,220C305.52,222.74,315.47,223.39,325.34,222.8Z" style="fill:#eea53a"/><path d="M291.68,156.71l1,1.18,8.62,9.67,7.08,7.89.89-.66-.65-.73c-2.89-3.29-5.66-6.65-8.42-10s-5.52-6.73-8.15-10.29l-.25-.35-1.69.36c.3.71.6,1.42.91,2l.29.52Z" style="fill:#eea53a"/><path d="M233.07,165.69c.86,1.61,1.8,3.24,2.79,4.87L285.81,155l-.12-.35Z" style="fill:#eea53a"/><path d="M268.24,205.29l35.29-26.23c-2.21-2.57-4.38-5.18-6.53-7.8-2.76-3.39-5.52-6.73-8.15-10.3l-.25-.34-52.14,10.9A126.77,126.77,0,0,0,268.24,205.29Z" style="fill:#eea53a"/><path d="M454.66,162.38a2.65,2.65,0,0,0,1.74-.61c.07-.49.13-1,.16-1.51.33-5.32-1.42-9.75-3.91-9.91a2.59,2.59,0,0,0-1.74.61c-.06.5-.13,1-.16,1.51C450.42,157.79,452.17,162.22,454.66,162.38Z" style="fill:#eea53a"/><path d="M492.71,279.54l.67.64.33-5.55Z" style="fill:#eea53a"/><path d="M376.65,389.07a40,40,0,0,1-4.52.26,44,44,0,0,1-10.55-1.3L355,397.9C360.62,399.69,368.2,396.51,376.65,389.07Z" style="fill:#eea53a"/><path d="M380.41,260.44l-8-2.74c0,10.09,8.08,20.38,20.38,25.1l.91-12.55A47.61,47.61,0,0,1,380.41,260.44Z" style="fill:#eea53a"/><path d="M357.79,193.11c-3.59-.06-7.17-.2-10.75-.35l-1.29,1.86c3.05.27,6.1.52,9.14.85,4.23.42,8.47.84,12.7,1.35,1.82.21,3.63.45,5.45.67.54-1.41,1.12-2.79,1.76-4.14-1.41,0-2.82,0-4.24,0C366.3,193.33,362.05,193.22,357.79,193.11Z" style="fill:#eea53a"/><path d="M353.17,397.15l.85-11.72A43.82,43.82,0,0,1,343,378.24C344.91,388,348.41,394.57,353.17,397.15Z" style="fill:#eea53a"/><path d="M397.19,352.72c.12-.46.27-.91.37-1.38a49.31,49.31,0,0,1-10.34,1.1,50.82,50.82,0,0,1-13.07-1.73l-8.08,12c.21.08.41.18.62.25A26.22,26.22,0,0,0,397.19,352.72Z" style="fill:#eea53a"/><polygon points="538.66 564.35 474.29 564.35 445.62 613.99 477.49 669.18 542.18 669.18 570.69 619.83 538.66 564.35" style="fill:#eea53a"/><polygon points="766.85 669.93 795.51 620.29 763.64 565.1 698.94 565.1 670.29 614.74 702.15 669.93 766.85 669.93" style="fill:#eea53a"/><polygon points="764.04 435.11 699.66 435.11 671 484.75 702.87 539.95 767.56 539.95 796.07 490.58 764.04 435.11" style="fill:#eea53a"/><polygon points="586.32 500.48 557.82 549.84 589.85 605.31 654.22 605.31 682.88 555.67 651.01 500.48 586.32 500.48" style="fill:#eea53a"/><polygon points="426.36 499.73 361.67 499.73 333 549.37 364.88 604.56 429.57 604.56 458.23 554.93 426.36 499.73" style="fill:#eea53a"/><polygon points="767.56 410.7 796.23 361.06 764.36 305.87 699.66 305.87 671 355.5 702.87 410.7 767.56 410.7" style="fill:#eea53a"/><polygon points="654.95 475.32 683.6 425.68 651.74 370.49 587.05 370.49 558.38 420.13 590.26 475.32 654.95 475.32" style="fill:#eea53a"/><polygon points="815.23 476.07 879.6 476.07 908.26 426.43 876.39 371.24 811.7 371.24 783.2 420.6 815.23 476.07" style="fill:#eea53a"/><polygon points="542.18 539.95 570.85 490.31 538.98 435.11 474.29 435.11 445.62 484.75 477.49 539.95 542.18 539.95" style="fill:#eea53a"/><polygon points="651.02 629.72 586.33 629.72 557.66 679.36 589.54 734.55 654.22 734.55 682.89 684.92 651.02 629.72" style="fill:#eea53a"/><polygon points="810.99 630.47 782.49 679.83 814.51 735.3 878.88 735.3 907.55 685.66 875.68 630.47 810.99 630.47" style="fill:#eea53a"/><polygon points="698.94 694.34 670.29 743.98 702.15 799.17 766.85 799.17 795.35 749.82 763.32 694.34 698.94 694.34" style="fill:#eea53a"/><path d="M1038.15,512.59c6.17-.67,12.36-1.27,18.55-1.76,5.87-2.25,11.86-4.53,17.37-7.31a32.25,32.25,0,0,0,3.87-2.24,8.36,8.36,0,0,0,1.48-1.3l1.61-1.76,6.49-7.15,6.44-7.17.76-.87.06-.07c1.7-4.24,3.35-8.53,5.25-12.71-27.78,5.72-57.39,24.89-73.13,38.64a38.14,38.14,0,0,1,3.22,4.66C1032.8,513.21,1035.47,512.89,1038.15,512.59Z" style="fill:#eea53a"/><path d="M1060.89,515.16c3.4-1.37,6.77-2.81,10-4.43a32.38,32.38,0,0,0,3.88-2.23l.46-.36a134.62,134.62,0,0,1-14.86,5.9Z" style="fill:#eea53a"/><path d="M1038.31,515.38c-2.41,0-4.83,0-7.24,0a44.56,44.56,0,0,1,2,4.67l1.82-.22c6.18-.67,12.36-1.28,18.55-1.76l3.46-1.33-1.15-1.7C1050,515.23,1044.14,515.34,1038.31,515.38Z" style="fill:#eea53a"/><path d="M1012.43,575.14l.36,5.42-2.86-4.31c-.37.15-.71.35-1.09.49l.59,8.75a27.83,27.83,0,0,0,4.64-1.15,25.86,25.86,0,0,0,12.74-9.13,14.08,14.08,0,0,0-.45-7.11c-.15-.43-.32-.85-.51-1.27l-4.12,1.4A35.43,35.43,0,0,1,1012.43,575.14Z" style="fill:#eea53a"/><path d="M1021.76,513.65l0,.05c.26.29.48.6.74.89C1022.22,514.28,1022,514,1021.76,513.65Z" style="fill:#eea53a"/><path d="M883.13,556.55c-3.89-2.84-7.65-5.83-11.46-8.76-8,4-15,9-20.25,15.06a35.18,35.18,0,0,0-2.21,2.87,13.37,13.37,0,0,0,2.46,10.67c3.06,4.35,8.19,8.06,14.51,11l20-28.58C885.17,558.05,884.15,557.3,883.13,556.55Z" style="fill:#eea53a"/><path d="M888.05,556.18l2.61-3.73-.35-.24c-1.37-.92-2.67-1.91-4-2.87-2.26-1.66-4.47-3.36-6.68-5.07-2.37.94-4.7,1.92-6.93,3,4.08,2.18,8,4.6,12,6.93Z" style="fill:#eea53a"/><path d="M972.4,493.08v-.19c-.36-3.53-1.86-6.32-3.49-6.73v.18C969.26,489.88,970.76,492.67,972.4,493.08Z" style="fill:#eea53a"/><path d="M910.91,566.18c-3.19-.62-6.34-1.34-9.5-2.07s-6.31-1.44-9.48-2.34l-.3-.08-22.85,26.77a90.91,90.91,0,0,0,34.91,6.15l7.94-28.29Z" style="fill:#eea53a"/><path d="M1015.27,508l.49-.49a32,32,0,0,0-4.3-2.84c-.08.21-.16.42-.25.62l.39.39A39,39,0,0,1,1015.27,508Z" style="fill:#eea53a"/><path d="M994.78,485.62c1.42-1.12.86-4.53-1.32-7.74s-5.27-5.09-6.8-4.05c-.85.58-1,1.93-.67,3.57A18.81,18.81,0,0,1,994.78,485.62Z" style="fill:#eea53a"/><path d="M902.26,560l9.5,1.73,2.23.4.85-3-.72-.14c-3.19-.62-6.35-1.34-9.5-2.06s-6.31-1.45-9.48-2.35l-.3-.08-3,3.54,1,.21Z" style="fill:#eea53a"/><path d="M866.59,587.56c.33.15.69.27,1,.42l6.28-9Z" style="fill:#eea53a"/><path d="M945.22,552.5l0,.31q4.63-2.91,9.31-5.75c1.2-.73,2.41-1.43,3.61-2.15-.09-.59-.14-1.18-.2-1.76C953.75,546.32,949.51,549.45,945.22,552.5Z" style="fill:#eea53a"/><path d="M993,571.85a28.74,28.74,0,0,0,6.62,0h-.08a35.54,35.54,0,0,1-5.36-.42Z" style="fill:#eea53a"/><path d="M942,559.72l1.18,21.35c.91-.74,1.81-1.5,2.68-2.28l-3.81-19.1Z" style="fill:#eea53a"/><path d="M958.63,547.43c-.84.64-1.67,1.3-2.52,1.94-3.51,2.65-7.07,5.23-10.63,7.8l1.15,21a119.5,119.5,0,0,0,16.52-18.94,41.52,41.52,0,0,1-3.29-7.18A42.35,42.35,0,0,1,958.63,547.43Z" style="fill:#eea53a"/><path d="M941.2,555.38l-.18-.9a133.41,133.41,0,0,1-16.44,4.59,33.6,33.6,0,0,1-5.18.59h0l-1,2.38,2.11-.35a185.41,185.41,0,0,0,18.24-4.75C939.56,556.41,940.38,555.9,941.2,555.38Z" style="fill:#eea53a"/><path d="M979.51,557.13a31.27,31.27,0,0,0,14.32,7.15,2.38,2.38,0,0,1,.52-.58,2.61,2.61,0,0,1,3.64.56l.24.52a28.07,28.07,0,0,0,7.35-.6,2.49,2.49,0,0,1-1-.76,2.61,2.61,0,1,1,4.35-.23,28.8,28.8,0,0,0,15-12.34,33.45,33.45,0,0,0-.38-20.45,34.42,34.42,0,0,0-2.3-5.21,35.94,35.94,0,0,1,.37,4.38,33.14,33.14,0,0,0-2.17-7.35,32.75,32.75,0,0,0-13.12-11.28,42.62,42.62,0,0,1,4.3,4.62,36.07,36.07,0,0,1,5.73,10.08,33.84,33.84,0,0,1,2.05,11.14,33.05,33.05,0,0,0-3.64-10.41,31.88,31.88,0,0,0-4.43-6.11,34.46,34.46,0,0,1,1.89,14.34,34.05,34.05,0,0,0-7.73-18.8c-.5-.6-1-1.19-1.55-1.76a33.33,33.33,0,0,0-3.61-2,26.37,26.37,0,0,0-4.3-1.65,22.81,22.81,0,0,1,2.24,1.89,37.68,37.68,0,0,1,6.91,8.81,36.67,36.67,0,0,1,4,10.14,34.83,34.83,0,0,1,.8,10.64,34,34,0,0,0-7.73-18.8,34.94,34.94,0,0,0-5-4.93l4.92,20a2.59,2.59,0,1,1-.91.42l.17-.08-9.49-21.67,8.16,33.17-13.78-31.47-.62-1.44a34.56,34.56,0,0,0-.67,5.68,34,34,0,0,0,5.18,19.43,2.52,2.52,0,0,1,1,.79,2.6,2.6,0,1,1-3.64-.56,2.57,2.57,0,0,1,2.55-.25,34.92,34.92,0,0,1-8-15.82c-.16,1.2-.29,2.41-.33,3.63a34,34,0,0,0,5.29,19.62,34.83,34.83,0,0,1-5.83-8.93,36.63,36.63,0,0,1-3-10.5c-.14-1-.23-2.06-.29-3.09a36.38,36.38,0,0,1,.42-8.11,21.39,21.39,0,0,1,.64-2.89c.12-.42.29-.83.43-1.24l-.35.34c-.25.28-.51.57-.75.87-.55.73-1.08,1.52-1.58,2.34a38,38,0,0,0-1.18,4.76A32.53,32.53,0,0,0,978,544.35a33.89,33.89,0,0,1-5.15-10.09,31.08,31.08,0,0,1-1.1-4.81c-.06.29-.14.57-.19.86a32.72,32.72,0,0,0,3.23,21.26,34,34,0,0,1-5.15-10.09A35.78,35.78,0,0,1,968.11,530c0-1.09.1-2.19.21-3.28a33.78,33.78,0,0,0,7.58,26.79l.46-.51a2.6,2.6,0,0,1,3.15,4.14Zm35.17-15.39a2.61,2.61,0,1,1-.55,3.65A2.62,2.62,0,0,1,1014.68,541.74Zm-.39,10.51a2.61,2.61,0,1,1-.55,3.65A2.62,2.62,0,0,1,1014.29,552.25Zm-10.78-3.09a2.61,2.61,0,1,1-.55,3.64A2.62,2.62,0,0,1,1003.51,549.16ZM990,553.43a2.61,2.61,0,1,1-.56,3.64A2.61,2.61,0,0,1,990,553.43Z" style="fill:#eea53a"/><path d="M958,533.79c-18-1.76-50.15-.07-76.15,9.62,2,1.19,4,2.4,6,3.58l4.16,2.43c.67.39,1.38.8,2,1.08l.4.17.41.09L896,551l9.46,1.77L915,554.5l2.36.42a8.84,8.84,0,0,0,1.95.13,31.66,31.66,0,0,0,4.44-.58A186.14,186.14,0,0,0,942,549.72q7.8-5.06,15.77-9.87A40.67,40.67,0,0,1,958,533.79Z" style="fill:#eea53a"/><path d="M921.37,566.29a35.75,35.75,0,0,1-4.9.57L905.4,594.59a69.48,69.48,0,0,0,22-4.09,56.12,56.12,0,0,0,14.47-8.4l-4.07-20.4A133.41,133.41,0,0,1,921.37,566.29Z" style="fill:#eea53a"/><path d="M1057.13,521.26l7,14.21c2,.31,4.08.57,6.14.74l-10.76-15.77C1058.71,520.72,1057.92,521,1057.13,521.26Z" style="fill:#eea53a"/><path d="M1077.45,512.23a35.32,35.32,0,0,1-4.48,2.68c-3.34,1.61-6.7,3-10.1,4.29l8.39,17.09a61.07,61.07,0,0,0,21.78-1.92,62.05,62.05,0,0,0,12.54-5.43l-28.09-16.74Z" style="fill:#eea53a"/><path d="M1093.6,493.42c-2,2.64-4,5.12-6.1,7.62-.58.71-1.19,1.4-1.78,2.1l27.71,20.79a94.35,94.35,0,0,0,21.76-21.9l-41.41-8.86Z" style="fill:#eea53a"/><path d="M1081.21,508.46l-.49.55,25.82,19.37c2.19-1.26,4.35-2.65,6.46-4.15l-30-17.88C1082.4,507.06,1081.82,507.77,1081.21,508.46Z" style="fill:#eea53a"/><path d="M1141.39,484.32c-.32-7.8-5.21-12.6-15-14.68-7.47-1.58-15.58-1.34-23.89.14-.61,2.32-1.23,4.63-1.9,6.93-.45,1.57-.88,3.13-1.41,4.7l-.13.4,40.59,12.82A28.93,28.93,0,0,0,1141.39,484.32Z" style="fill:#eea53a"/><path d="M1096.81,486.2l-.07.09c-.23.78-.46,1.56-.72,2.34l-.14.4,39.64,12.52a69.28,69.28,0,0,0,4-6.49L1097,486Z" style="fill:#eea53a"/><path d="M1041.53,660.37l.41,6.21-3.16-4.76c-.28.13-.54.29-.82.42l.51,7.55a8.57,8.57,0,0,0,4.5-.16,9.49,9.49,0,0,0,4.63-3.84,59.3,59.3,0,0,0,2-12.3A32.45,32.45,0,0,1,1041.53,660.37Z" style="fill:#eea53a"/><path d="M1013.5,637.63c-.26,0-.51,0-.77,0a19.12,19.12,0,0,0,6.52,5.2,19.58,19.58,0,0,0,9.42,2l-5.56-8.36A38,38,0,0,1,1013.5,637.63Z" style="fill:#eea53a"/><path d="M1028.38,634.56l.68,10.13a19.67,19.67,0,0,0,14.82-8.19,18.81,18.81,0,0,0-.56-10.06,17.67,17.67,0,0,0-.89-2.15A37.13,37.13,0,0,1,1032,632.8l.36,5.37-2.78-4.17C1029.15,634.17,1028.78,634.4,1028.38,634.56Z" style="fill:#eea53a"/><path d="M1024.75,615.83a24.34,24.34,0,0,0,12.28-9.19,19.14,19.14,0,0,0-.46-10.59,18.31,18.31,0,0,0-1.23-2.84l-2.15.72a39.93,39.93,0,0,1-11.44,8.89l.34,5.18-2.69-4c-.42.18-.81.41-1.23.58l.72,10.69-5.93-8.91a42,42,0,0,1-10.88,1.48c-1.25,0-2.48-.06-3.71-.18a20,20,0,0,0,8.86,7.55A24,24,0,0,0,1024.75,615.83Z" style="fill:#eea53a"/><path d="M1028.94,664.78a29.84,29.84,0,0,0,6.47,4l-3.08-4.63A33.56,33.56,0,0,1,1028.94,664.78Z" style="fill:#eea53a"/><path d="M1008.17,585.65l-4.86-7.3a34.67,34.67,0,0,1-7,.73,35.3,35.3,0,0,1-5.35-.42l-1.29.44a16.83,16.83,0,0,0,7.3,5.23A23.85,23.85,0,0,0,1008.17,585.65Z" style="fill:#eea53a"/><path d="M1035.1,522.6H1034a42.39,42.39,0,0,1,1.14,5A145.82,145.82,0,0,0,1061.3,535l-8.71-12.78C1046.77,522.45,1040.94,522.56,1035.1,522.6Z" style="fill:#eea53a"/><path d="M381.31,202.31a44.7,44.7,0,0,0,.76,31.43l.26,0a3.69,3.69,0,0,1,2.81,6.11,39.8,39.8,0,0,0,7.69,9.16,3.7,3.7,0,0,1,6.45,2.5,3.75,3.75,0,0,1-.49,1.82,38.42,38.42,0,0,0,6.78,3.14c.72.24,1.45.41,2.17.62a3.62,3.62,0,0,1-.14-.94,3.72,3.72,0,0,1,7.44,0,3.65,3.65,0,0,1-.72,2.18,38.45,38.45,0,0,0,11.14-.52,3.71,3.71,0,1,1,6.38-2.59,3.25,3.25,0,0,1-.08.77,43.88,43.88,0,0,0,23.06-20.15,44.81,44.81,0,0,0,.75-26.8,42.2,42.2,0,0,1-1.33,5.46,45.32,45.32,0,0,1-3.57,8.19,45.77,45.77,0,0,1-6.62,12.57,43.83,43.83,0,0,0,4.46-28.58A50,50,0,0,0,445.44,196c-.09,1.2-.21,2.38-.37,3.55A49.65,49.65,0,0,1,441,213.68c-.48,1-1,2.06-1.55,3.06a44,44,0,0,1-1.66,4.16,47,47,0,0,1-7.9,12,45.67,45.67,0,0,0,4.24-8.44c-.35.41-.67.83-1,1.22.55-.86,1.06-1.75,1.55-2.64.34-1,.65-1.94.92-2.92a46.48,46.48,0,0,0,1.56-13.59,44.92,44.92,0,0,0-2.27-13.08,26.17,26.17,0,0,0-2.21-4.88L416,226.21v0l-3.22,7.26,12-47.92a27.2,27.2,0,0,0-5.16,2.66,44.81,44.81,0,0,0-9.84,8.92,48.59,48.59,0,0,0-5,7.39,45.25,45.25,0,0,0-2.28,10.63,44.39,44.39,0,0,1,0-5.77,45.6,45.6,0,0,0-3.17,13A46.86,46.86,0,0,1,400.4,208,48.51,48.51,0,0,1,405.06,196a53,53,0,0,1,4-8.77,54.11,54.11,0,0,1,4.23-6.26c-.7.28-1.4.56-2.08.9a49.15,49.15,0,0,0-11.76,8,44.69,44.69,0,0,0-9.08,11.29,46.41,46.41,0,0,0-1.77,6.77c0-1.24.1-2.49.23-3.73a45.2,45.2,0,0,0-3.44,11,46,46,0,0,1,2.83-15,44,44,0,0,1,2.89-6.23c.11-.33.2-.66.32-1a42.09,42.09,0,0,1,2.12-4.76,44.52,44.52,0,0,0-12.26,14.15Zm56.15,37.44a3.72,3.72,0,1,1-3.72,3.72A3.73,3.73,0,0,1,437.46,239.75ZM423.79,224a3.72,3.72,0,1,1-3.71,3.71A3.72,3.72,0,0,1,423.79,224Zm-5.42,14.83a3.72,3.72,0,1,1-3.72,3.71A3.71,3.71,0,0,1,418.37,238.83Zm-13.51-22a3.72,3.72,0,1,1-3.72,3.72A3.73,3.73,0,0,1,404.86,216.87Zm-5.58,15.45a3.72,3.72,0,1,1-3.72,3.72A3.71,3.71,0,0,1,399.28,232.32Zm-15.29-12a3.72,3.72,0,1,1-3.72,3.72A3.71,3.71,0,0,1,384,220.28Z" style="fill:#eea53a"/><path d="M425.39,152.41c1.94,1.21,5.41-.85,8.16-4.62.34-2.1,0-3.8-1.14-4.51-1.93-1.2-5.41.86-8.15,4.64C423.93,150,424.27,151.71,425.39,152.41Z" style="fill:#eea53a"/><path d="M284.11,149.35c-.12-.4-.23-.79-.34-1.18-1.94-6.74-3.53-13.55-5.35-20.3-11.78-2.28-23.29-2.74-33.87-.54-8.3,1.72-14.2,5-17.69,9.79a23.48,23.48,0,0,0-.51,4c-.33,7.3,2.11,15.63,6.51,24.11Z" style="fill:#eea53a"/><path d="M432.87,136.24l-.05-.19a10.33,10.33,0,0,0-3.24,2.21,22.44,22.44,0,0,1,3.47-1.16C433,136.83,433,136.56,432.87,136.24Z" style="fill:#eea53a"/><path d="M287.37,147l.48,1.21,1.17-.36-.18-.54c-.7-2.11-1.26-4.23-1.86-6.33-1.14-3.93-2.16-7.89-3.16-11.85-1.4-.34-2.8-.7-4.19-1,1,2.22,2,4.47,2.9,6.72C284.2,138.87,285.79,142.92,287.37,147Z" style="fill:#eea53a"/><path d="M293,145.75c.4,1,.83,2,1.24,2.79l.3.52.36.43,1,1.18,8.63,9.67L313.2,170l2.16,2.38a12.08,12.08,0,0,0,2,1.75,42.22,42.22,0,0,0,5.21,3,250.71,250.71,0,0,0,23.31,10c4.09.34,8.17.7,12.25,1.13s8.47.84,12.7,1.35c1.86.21,3.72.47,5.58.69a54.07,54.07,0,0,1,5-7.44c-19.64-17.86-57.78-43.5-94.8-53.1,1.35,3.33,2.69,6.67,4,10Z" style="fill:#eea53a"/><polygon points="436.12 136.56 436.08 136.51 436.09 136.56 436.12 136.56" style="fill:#eea53a"/><path d="M542.68,864.75c2.8-1.36,5.6-2.73,8.43-4-.82-.47-1.67-.92-2.51-1.38-4.83,3.3-9.66,6.62-14.59,9.81C536.9,867.68,539.77,866.18,542.68,864.75Z" style="fill:#eea53a"/><path d="M417.09,854.53c4.57,3.23,9.08,6.54,13.57,9.86,10.85,4,21.88,8,32.87,10.8a60.6,60.6,0,0,0,8.06,1.59,16.12,16.12,0,0,0,3.6,0l4.36-.49,17.62-2.09L514.72,872l2.1-.31.75-.12a3.1,3.1,0,0,0,.76-.26c1.16-.45,2.51-1.12,3.8-1.75l7.88-4c5.14-2.67,10.32-5.33,15.54-7.91-49.48-25.94-118.2-33.78-153.67-32a74.41,74.41,0,0,1-1.28,10.48c4.11,2.75,8.2,5.5,12.24,8.33C407.65,847.77,412.37,851.15,417.09,854.53Z" style="fill:#eea53a"/><path d="M413.88,861.75c3.52,2.49,7,5,10.45,7.6l0-.23c-3.8-3.08-7.6-6.17-11.34-9.33-4.46-3.72-8.92-7.44-13.3-11.26-3.35-2.86-6.64-5.78-9.93-8.7-.37,1.45-.8,2.88-1.25,4.31,3.72,2.5,7.43,5,11.1,7.56C404.44,855,409.16,858.37,413.88,861.75Z" style="fill:#eea53a"/><path d="M336,739c2.78,2,8.44-1.25,12.64-7.17.21-.29.37-.59.56-.88.62-2.83.29-5.16-1.2-6.21-2.78-2-8.43,1.25-12.63,7.17-.21.29-.37.59-.57.88C334.2,735.61,334.54,737.93,336,739Z" style="fill:#eea53a"/><path d="M587.92,891.6c-8.88-11.79-21.1-21.7-35.25-30-7.78,5.19-15.38,10.61-23.27,15.67l-2.75,1.78,39.25,64.19c12.09-4.71,22-11,28.25-18.75a32.82,32.82,0,0,0,2.19-3.13C598.82,912.33,596,902.35,587.92,891.6Z" style="fill:#eea53a"/><path d="M559.64,945.49c1.91-.62,3.79-1.27,5.61-2l-36.76-49Z" style="fill:#eea53a"/><path d="M512.68,885.84c-5.91,1.28-11.76,2.23-17.64,3.21-4.78.79-9.57,1.55-14.37,2.22l13.08,61.07c22.11,2,45.41-.39,64.65-6.45l-45.17-60.17Z" style="fill:#eea53a"/><path d="M298.63,952.94a76,76,0,0,1-24.34-4.09l-11.87,15.63L265,945a74.48,74.48,0,0,1-26.42-21.21l-3.73-1.53-.31.56c-6,18.8,4.92,40.08,25.38,48.47a43.88,43.88,0,0,0,32.17.8,36.54,36.54,0,0,0,19-15.75c.25-.83.49-1.67.68-2.51L308,952.29A71.28,71.28,0,0,1,298.63,952.94Z" style="fill:#eea53a"/><path d="M488.88,951.81c1.35.16,2.71.32,4.08.45l-11.45-34.85Z" style="fill:#eea53a"/><path d="M259.37,894.19c4.72,8.91,13,16.16,23.33,20.48l2.6-20a64.83,64.83,0,0,1-17.62-14.57l-11.79-4.83A29.74,29.74,0,0,0,259.37,894.19Z" style="fill:#eea53a"/><path d="M154.41,730.55c.13.24.25.64.37.72l.44.62,1.29,1.69.12.16c-.76-1.11-1.53-2.19-2.28-3.33Z" style="fill:#eea53a"/><path d="M73.51,741.77c.78,1.7,1.62,3.4,2.49,5.1l55.28-13.72Z" style="fill:#eea53a"/><path d="M156.15,719.43c.47,1.35,1,2.77,1.47,3.9.12.24.25.65.37.72l.44.62,1.28,1.69,11,13.86,11.08,13.86,2.75,3.42a16.51,16.51,0,0,0,2.55,2.54,59.4,59.4,0,0,0,6.85,4.54c9.76,5.74,20.47,10.58,31,15.39,5.54.79,11.07,1.6,16.6,2.51,5.74.91,11.47,1.82,17.2,2.86,2.53.42,5.05.87,7.58,1.34a73.73,73.73,0,0,1,9-11.44C249.63,749,198.32,710,147.81,694.48c1.91,5.52,3.73,11.06,5.52,16.59Z" style="fill:#eea53a"/><path d="M145.13,719.64c-2.07-9.14-3.67-18.34-5.56-27.49-15.88-4.06-31.54-5.59-46.14-3.44-12.62,1.86-21.36,6.56-26.16,14a31.47,31.47,0,0,0-1,5.23c-1,9.86,1.64,21.34,6.93,33.18l72.66-18C145.64,721.94,145.38,720.79,145.13,719.64Z" style="fill:#eea53a"/><path d="M148.62,713.69c-.09-.42-.19-.85-.28-1.27-1.43-6.29-2.63-12.61-3.86-18.93l-3.17-.9c1.12,2.91,2.15,5.86,3.18,8.78C145.91,705.47,147.27,709.58,148.62,713.69Z" style="fill:#eea53a"/><path d="M240.69,789.08c-4.89-.37-9.76-.83-14.64-1.31l0,.05q6.14.88,12.26,1.88c5.74.9,11.47,1.82,17.2,2.85,2.28.39,4.55.8,6.82,1.21.5-1,1-2,1.54-3-1.92-.12-3.85-.24-5.77-.38C252.27,790.05,246.48,789.57,240.69,789.08Z" style="fill:#eea53a"/><path d="M368.86,830.12a57.88,57.88,0,0,1-2.93,6.4c-.1.27-.17.56-.27.83a62.78,62.78,0,0,1-10.59,17.9,62.56,62.56,0,0,0,4.36-8.7c-.39.49-.75,1-1.15,1.48.67-1.1,1.26-2.23,1.85-3.37a58.57,58.57,0,0,0,2.43-8.22,61,61,0,0,0,.86-19.78,68.08,68.08,0,0,0-3.4-14.87,76,76,0,0,1-1.08,7.85,67.77,67.77,0,0,1-6.43,18.46,60.26,60.26,0,0,1-3.42,7.65,63.73,63.73,0,0,1-11.72,15.7,61.79,61.79,0,0,0,6-10.13c-.89,1-1.8,2-2.75,2.91a62.11,62.11,0,0,0,4.77-7.69c.26-.68.55-1.36.78-2a63,63,0,0,0,3.2-18.39,61.37,61.37,0,0,0-2.05-18,36,36,0,0,0-2.63-6.87L314,850.84l18.85-60.16,1.31-4.18a35.19,35.19,0,0,0-7.23,3.23,61.15,61.15,0,0,0-14.11,11.37A63.65,63.65,0,0,0,302.92,815a61.8,61.8,0,0,0-3.24,12.42c0-1.86,0-3.74.18-5.62a61.7,61.7,0,0,0-3.39,12.85,63.81,63.81,0,0,1,7.24-30.62,70.12,70.12,0,0,1,7.2-14.12c1-1.58,2.17-3.13,3.34-4.64a70.68,70.68,0,0,1,5.44-6.21c-1.24.4-2.48.84-3.7,1.36a66.78,66.78,0,0,0-16.64,9.91A61.05,61.05,0,0,0,286.07,805c-.85,1.32-1.63,2.69-2.37,4.08a60.87,60.87,0,0,0-2.3,7.35c.09-1.14.26-2.28.41-3.42a62,62,0,0,0-3.62,10.64,62.5,62.5,0,0,1,5-20.18c.6-1.39,1.28-2.75,2-4.09.39-1,.76-2.1,1.21-3.13a65.23,65.23,0,0,1,10.92-16.92,52.33,52.33,0,0,0-26.14,69.1,59.87,59.87,0,0,0,2.5,5.58l0-.26a4.82,4.82,0,1,1,2.13,4,53,53,0,0,0,15.53,16.34,4.81,4.81,0,1,1,4.4,2.66,51.29,51.29,0,0,0,5,2.38,52.68,52.68,0,0,0,34.65,1.79,4.81,4.81,0,1,1,6.87-2.45A52.28,52.28,0,0,0,373,810.66,64.79,64.79,0,0,1,368.86,830.12Zm-88.19,11.07a4.81,4.81,0,1,1,4.81-4.81A4.81,4.81,0,0,1,280.67,841.19Zm19.8,15.59a4.81,4.81,0,1,1,4.81-4.81A4.81,4.81,0,0,1,300.47,856.78Zm7.22-20A4.81,4.81,0,1,1,312.5,832,4.81,4.81,0,0,1,307.69,836.78Zm8.37,46a4.81,4.81,0,1,1,4.81-4.81A4.81,4.81,0,0,1,316.06,882.8Zm9.12-17.6a4.81,4.81,0,1,1,4.81-4.81A4.81,4.81,0,0,1,325.18,865.2Zm7-19.19a4.82,4.82,0,1,1,4.81-4.82A4.82,4.82,0,0,1,332.2,846Zm17.69,20.4a4.82,4.82,0,1,1,4.82-4.81A4.81,4.81,0,0,1,349.89,866.41Z" style="fill:#eea53a"/><path d="M317.33,903.16a64.67,64.67,0,0,1-22.47-4L283,914.8l.07,0c10.5,4.3,21.63,5,31.34,1.93a29.69,29.69,0,0,0,15.76-11l-7-2.88C321.19,903.06,319.26,903.16,317.33,903.16Z" style="fill:#eea53a"/><path d="M375,736c-1.37-.17-2.75.65-4,2.16a29,29,0,0,0-.53,2.94c-.87,7.22,1.17,13.4,4.55,13.8,1.37.17,2.75-.66,4-2.16a26.45,26.45,0,0,0,.52-2.94C380.47,742.55,378.43,736.37,375,736Z" style="fill:#eea53a"/><path d="M409.81,867c-4.46-3.72-8.92-7.44-13.3-11.26-3.1-2.64-6.15-5.35-9.2-8.06-.32.9-.62,1.8-1,2.69-.8,1.94-1.69,3.82-2.63,5.64-.2.53-.37,1.05-.58,1.58-.89,2.17-1.89,4.26-3,6.3,7.8,14.47,20.21,34.6,36.37,51.62l4.62-39.18C417.35,873.26,413.56,870.17,409.81,867Z" style="fill:#eea53a"/><path d="M467.64,892.43a63.83,63.83,0,0,1-9.42-1.69,241.84,241.84,0,0,1-28.43-9.83l-10.06,37.88c9.6,9.57,20.41,17.91,32.31,23.31,10.43,4.74,22.49,7.86,35.13,9.51l-19.44-59.17Z" style="fill:#eea53a"/><path d="M186.36,779.2a64.23,64.23,0,0,1-7.89-5.42l-.07-.06-55.29,28.42c10.25,7.8,21.13,14.14,32,18.13,12.26,4.51,25.81,6.17,39.36,6.11l19.44-34A241.36,241.36,0,0,1,186.36,779.2Z" style="fill:#eea53a"/><path d="M256.88,805.8c.78-1.9,1.66-3.72,2.57-5.52.22-.56.41-1.14.64-1.7.08-.2.18-.39.26-.59l-5.49-.36c-5.8-.36-11.59-.84-17.38-1.33-4.89-.38-9.76-.83-14.63-1.31L198.5,826.28c19.95-.59,39.54-4.68,54.71-8.88A75.69,75.69,0,0,1,256.88,805.8Z" style="fill:#eea53a"/><path d="M252.25,1002.74l-12,15.83,2.57-19.71a68.84,68.84,0,0,1-24.47-20.29c-4.93,17.08,3.95,35.66,21,42.68a35.72,35.72,0,0,0,44.39-14.65c.11-.38.23-.76.35-1.15a67.67,67.67,0,0,1-10.15.83A69.51,69.51,0,0,1,252.25,1002.74Z" style="fill:#eea53a"/><path d="M118.84,798.77c1,.78,1.94,1.54,2.91,2.29l26.57-17.45Z" style="fill:#eea53a"/><path d="M161.33,752.13c-3.5-4.82-7-9.61-10.3-14.67l-.31-.48-74.1,11.07c9.44,17.89,24.41,36,41.61,50.22l52-34.16C167.2,760.16,164.26,756.16,161.33,752.13Z" style="fill:#eea53a"/><path d="M232.17,1052.59l-11.58,15.26c8,3.06,19.67-1.6,33-12.7-1.21.07-2.42.14-3.64.14A59.88,59.88,0,0,1,232.17,1052.59Z" style="fill:#eea53a"/><path d="M205.31,1035.54c1.61,16.91,6.56,28.17,14.29,31.87l2.47-19A60.22,60.22,0,0,1,205.31,1035.54Z" style="fill:#eea53a"/><path d="M1003,552.81a2.61,2.61,0,1,0,.55-3.65A2.61,2.61,0,0,0,1003,552.81Z" style="fill:#1a1919"/><path d="M1005.18,559.77a2.61,2.61,0,0,0-.55,3.65,2.49,2.49,0,0,0,1,.76,2.59,2.59,0,0,0,2.7-.21,2.73,2.73,0,0,0,.7-.78,2.61,2.61,0,0,0-3.8-3.42Z" style="fill:#1a1919"/><path d="M384,220.28a3.72,3.72,0,1,0,3.72,3.72A3.72,3.72,0,0,0,384,220.28Z" style="fill:#1a1919"/><path d="M1003.5,542.73a2.61,2.61,0,0,0-2.18-4.63,2.47,2.47,0,0,0-.74.34l-.17.08a2.61,2.61,0,0,0,3.09,4.21Z" style="fill:#1a1919"/><path d="M382.32,233.72l-.25,0a3.56,3.56,0,1,0,.25,0Z" style="fill:#1a1919"/><path d="M993.67,554a2.61,2.61,0,1,0-.56,3.64A2.62,2.62,0,0,0,993.67,554Z" style="fill:#1a1919"/><path d="M387.05,813.09a73.1,73.1,0,0,0-3-9.93l3.18-1.64,17.25-8.68c11.54-5.79,23.1-11.57,34.58-17.59,5.74-3,11.46-6.06,17.12-9.41,1.42-.83,2.83-1.65,4.25-2.61l2.11-1.38,2.19-1.76a24.66,24.66,0,0,0,3.33-4.17l2.75-4c7.11-10.82,13.95-21.74,20.77-32.7-8,10.13-16,20.25-24.22,30.13L464.25,753a19.91,19.91,0,0,1-3,3.06l-1.73,1.08-2.06,1c-1.35.72-2.8,1.37-4.25,2-5.77,2.59-11.74,5-17.71,7.3-12,4.66-24,9.11-36.13,13.58l-18.19,6.74-4.25,1.62a66.52,66.52,0,0,0-8.42-10.23,35.23,35.23,0,0,0,14.93-17.23,34.64,34.64,0,0,0-2.77-32.14l1.15.46v.14l.44-.37a11.48,11.48,0,0,1,1.09-.84c.78-.57,1.59-1.13,2.44-1.68,1.66-1.11,3.38-2.18,5.1-3.24,3.45-2.13,6.95-4.2,10.46-6.24q10.55-6.13,21.26-12l2.69-1.45a8.91,8.91,0,0,0,2.64-2c1.46-1.46,2.85-2.95,4.24-4.44l8.29-9,12.84-14.59-13.62,13.85L431,697c-1.45,1.41-2.91,2.84-4.39,4.19a6.59,6.59,0,0,1-2.26,1.58l-2.75,1.33q-11,5.39-21.84,11.08Q394.34,718,389,721c-1.79,1-3.58,2-5.36,3.08-.88.53-1.77,1.08-2.67,1.67a14.8,14.8,0,0,0-1.37,1,8.85,8.85,0,0,0-.71.57,30.4,30.4,0,0,0-25.26-11.44c-.09-.5-.19-1-.29-1.46-.23-1-.49-2.07-.76-3.07-.54-2-1.12-4-1.72-6q-1.8-5.9-3.73-11.72-3.86-11.68-8-23.25l-1-2.88a8.51,8.51,0,0,1-.45-1.39,12.19,12.19,0,0,1-.11-1.32c-.1-2-.14-4.06-.18-6.1l-.11-12.26V621.91l-1.08,24.51-.43,12.27c-.05,2-.11,4.09-.09,6.17a12.92,12.92,0,0,0,.1,1.74,9.18,9.18,0,0,0,.43,1.54l.9,2.93q3.57,11.71,6.92,23.51c1.1,3.93,2.18,7.86,3.19,11.8.5,2,1,3.94,1.43,5.9.21,1,.41,2,.58,2.91.08.4.13.78.18,1.16a34.53,34.53,0,0,0-25.54,21.12,35.34,35.34,0,0,0-1.47,22.79,67,67,0,0,0-15.71,1.94l-2.79-6.68-7.72-18.23C291,725.15,285.92,713,281,700.84c-2.46-6.09-4.86-12.2-7.07-18.32a86.64,86.64,0,0,1-2.84-9,7.3,7.3,0,0,1-.33-2c0-.65,0-1.53.07-2.29l.35-4.87c1.11-13.09,2.56-26.22,4-39.32-2.88,12.88-5.74,25.74-8.29,38.74l-.9,4.92c-.12.88-.27,1.64-.36,2.63a12.05,12.05,0,0,0,.1,2.91,86.76,86.76,0,0,0,2,10.12c1.57,6.5,3.31,12.89,5.11,19.26,3.6,12.75,7.39,25.41,11.18,38l5.69,18.94,2.1,7.1c-1.34.67-2.65,1.4-3.94,2.16C252.37,731.76,162.3,665.52,91.55,676c-24.47,3.6-39.14,17.06-41.28,37.88C45.91,756,95.87,820.63,147.45,839.6c3,1.11,6.14,2,9.29,2.88-2.28.6-4.57,1.19-6.85,1.81-5.13,1.4-10.25,2.87-15.37,4.46-2.56.79-5.12,1.63-7.69,2.57-1.28.46-2.58.94-3.9,1.53a18.63,18.63,0,0,0-2,1c-.37.2-.68.35-1.08.59a15.5,15.5,0,0,0-1.41,1.13l-.33.31-.16.2-.31.38-.62.78-1.24,1.56-2.47,3.1L98.48,880.55c-6.58,8.27-13.14,16.58-19.81,24.76-.84,1-1.69,2.06-2.51,2.93a20,20,0,0,1-3,2.23,66.34,66.34,0,0,1-7,3.63c-4.8,2.17-9.74,4.08-14.74,5.81,5.11-1.39,10.17-3,15.15-4.82a67,67,0,0,0,7.34-3.22,21.24,21.24,0,0,0,3.49-2.24c1.08-1,1.94-1.94,2.87-2.9,7.25-7.74,14.35-15.58,21.48-23.4l16-17.61,2.67-2.93,1.33-1.46.67-.73.33-.36.17-.18H123l.16-.06.7-.3a11.09,11.09,0,0,1,1.58-.62c1.12-.41,2.33-.78,3.57-1.13,2.44-.71,5-1.35,7.5-2,5.08-1.21,10.21-2.31,15.37-3.35,11-2.22,22.11-4.25,33.23-6.2,1.9.07,3.81.1,5.72.1,18.26,0,36.27-2.94,51.49-6.53-2.13,3.77-4.25,7.56-6.31,11.44-2.77.57-5.53,1.18-8.28,1.85a159.62,159.62,0,0,0-32.18,11.34,92.59,92.59,0,0,0-15,9.22l-3.48,2.91c-1.1,1.07-2.18,2.18-3.26,3.28s-2,2.46-3,3.69-1.58,2.22-2.38,3.34c-6.15,8.75-12.79,17.35-19.48,25.87q-20.19,25.53-41.55,50.24-5.33,6.16-10.79,12.21c-1.8,2-3.67,4-5.51,6-1,.93-1.9,1.93-2.84,2.81l-1.41,1.2c-.56.28-1.06.63-1.68.88a124.27,124.27,0,0,1-15.32,5.2c-5.23,1.5-10.5,2.88-15.78,4.18,5.36-.95,10.71-2,16-3.14a125.6,125.6,0,0,0,15.91-4.26c.66-.22,1.32-.59,2-.89s1.2-.88,1.81-1.32c1.1-.9,2.09-1.82,3.15-2.73,2-1.88,4-3.73,6-5.65,3.93-3.8,7.79-7.65,11.62-11.54q23-23.29,45-47.61c7.31-8.14,14.54-16.34,21.51-25,.85-1,1.78-2.26,2.57-3.16s1.48-1.71,2.33-2.51l2.65-2.34,2.94-2.14a81.26,81.26,0,0,1,13.31-7,146.65,146.65,0,0,1,26.5-7.68c-4.07,8.51-8,17.19-11.63,26.1-33.74,82.25-47,178.92-5.21,196.08a31.63,31.63,0,0,0,12.16,2.37c16.63,0,36-12.08,56.87-35.61,23.81-26.87,46.88-65.93,65-110q4.95-12.07,9.2-24.16a143.23,143.23,0,0,1,10.76,20,81.89,81.89,0,0,1,4.55,14.34l.58,3.59.25,3.52c0,1.17-.09,2.28-.11,3.43s-.26,2.71-.38,4.05c-1.11,11-1.71,21.94-2.23,32.87q-1.43,32.78-1.43,65.48c0,5.46,0,10.91.17,16.38,0,2.73.17,5.47.28,8.21.11,1.39.17,2.74.32,4.16.12.74.21,1.48.37,2.2s.48,1.41.79,2A123.26,123.26,0,0,0,376,1118q4.47,6.84,9.22,13.5-4.29-7-8.31-14.06a123.59,123.59,0,0,1-7.25-14.46c-.26-.61-.38-1.21-.58-1.81l-.16-1.84c-.05-1.28,0-2.67,0-4,.07-2.71.12-5.41.25-8.12.23-5.42.55-10.85.91-16.28q2.13-32.54,5.7-64.93c1.22-10.77,2.54-21.55,4.3-32.1.22-1.36.46-2.54.66-4s.41-3.16.47-4.71,0-3.09,0-4.63l-.43-4.51a93.47,93.47,0,0,0-4.18-17.08,159.75,159.75,0,0,0-14.94-30.67c-.61-1-1.26-1.94-1.88-2.91q2.55-8.28,4.73-16.46,7.56,10.23,15.07,20.5C392,926.45,404.3,943.6,416.07,961c2.95,4.36,5.83,8.76,8.6,13.18,1.37,2.21,2.73,4.44,4,6.66.63,1.12,1.23,2.23,1.74,3.31a13.87,13.87,0,0,1,.69,1.55l.28.71.08.16.05,0-.06,1.72-.23,5.94-1,23.79c-.41,10.57-.87,21.14-1.15,31.74,0,1.33-.07,2.63,0,4.08a21,21,0,0,0,.91,4,67.2,67.2,0,0,0,3,7.45c2.24,4.82,4.73,9.49,7.39,14.07-2.34-4.75-4.51-9.57-6.4-14.49a64,64,0,0,1-2.4-7.46,20,20,0,0,1-.6-3.73c0-1.19.16-2.55.27-3.84,1-10.51,2.15-21,3.28-31.55l3-27.61.22-2,.1-1,.05-.5,0-.25,0-.44a15.48,15.48,0,0,0-.2-1.8c-.12-.46-.24-.78-.36-1.18a18.62,18.62,0,0,0-.76-2.13c-.54-1.35-1.11-2.6-1.7-3.83-1.17-2.48-2.41-4.87-3.67-7.23q-3.8-7.1-7.81-14-4.17-7.15-8.41-14.24a118.29,118.29,0,0,0,28.54,18.81c18,8.18,40,12,62.05,12,39.2,0,78.49-12.09,95.45-33.24,13.09-16.34,12.11-36.21-2.78-56C553.62,824.64,436.39,809.48,387.05,813.09Zm1.68,12.77,3.15-.19c35.47-1.75,104.19,6.09,153.67,32,1,.54,2,1.09,3.05,1.65.84.46,1.69.91,2.51,1.38-2.83,1.29-5.63,2.66-8.43,4s-5.78,2.94-8.66,4.41c-2.41,1.23-4.83,2.44-7.22,3.68l-7.88,4c-1.28.63-2.64,1.3-3.79,1.75a3.19,3.19,0,0,1-.77.25l-.75.13-2.1.3L494,881.39l-17.62,2.09L472,884a15.6,15.6,0,0,1-3.61,0,57.77,57.77,0,0,1-8.06-1.58c-11-2.76-22-6.84-32.87-10.79-1-.77-2.08-1.51-3.12-2.27-3.46-2.55-6.93-5.11-10.45-7.6-4.72-3.39-9.44-6.76-14.25-10-3.66-2.57-7.37-5.06-11.09-7.56-.39-.25-.76-.52-1.15-.78A73.7,73.7,0,0,0,388.73,825.86Zm-21.39-77.57c.53-4.28,2-8,3.74-10.16,1.22-1.51,2.59-2.33,4-2.16,3.38.4,5.42,6.58,4.54,13.8a26.45,26.45,0,0,1-.52,2.94c-1.33,5.71-4.27,9.73-7.18,9.38C368.51,761.68,366.48,755.5,367.34,748.29Zm-32.52-15.51c.19-.29.36-.58.57-.88,4.2-5.92,9.85-9.13,12.64-7.17,1.48,1,1.81,3.38,1.19,6.21a23,23,0,0,1-3.77,8.09c-4.2,5.93-9.86,9.14-12.64,7.17S331.11,738.45,334.82,732.78ZM144.48,693.49q1.67.48,3.33,1C198.32,710,249.63,749,275.26,775.24c.71.73,1.4,1.44,2.07,2.15a73.77,73.77,0,0,0-14.27,16.5l-.76-.13c-2.27-.41-4.55-.82-6.82-1.21-5.72-1-11.46-1.95-17.2-2.85q-6.12-1-12.26-1.88c-1.45-.21-2.89-.43-4.34-.63-11.43-1.6-21.21-9.65-31-15.4a60.24,60.24,0,0,1-6.85-4.53,16.6,16.6,0,0,1-2.55-2.55l-2.75-3.41-11.08-13.85-10.85-13.71-.12-.16-1.29-1.69-.44-.62c-.12-.07-.25-.48-.37-.72l-.06-.14c-.48-1.1-1-2.46-1.41-3.77l-2.82-8.36c-.49-1.52-1-3.06-1.5-4.59-1.35-4.11-2.71-8.22-4.13-12.32-1-2.93-2.07-5.86-3.18-8.77C142.37,692.88,143.42,693.19,144.48,693.49ZM63.09,715.16a27.73,27.73,0,0,1,4.18-12.44c4.8-7.45,13.54-12.15,26.16-14,14.59-2.15,30.26-.62,46.14,3.44,1.89,9.15,3.49,18.35,5.56,27.49.25,1.15.51,2.3.76,3.46.39,1.76.79,3.53,1.27,5.3l.21.75-16.09,4L76,746.86l-6,1.49C64.73,736.51,62.07,725,63.09,715.16ZM70.31,749l6.31-.94L150.72,737l.31.48c3.32,5.07,6.8,9.85,10.3,14.67,2.92,4,5.87,8,8.9,12,.6.78,1.17,1.56,1.78,2.34l.83,1.06-57.82,38C95.8,789.64,79.35,768.85,70.31,749Zm81.59,78.5c-12.4-4.55-24.81-12.15-36.27-21.51l7.48-3.85,55.29-28.41.07.06a65,65,0,0,0,7.89,5.42,244,244,0,0,0,27.55,13.15l.74.31-23.39,40.93C177.71,833.66,164.16,832,151.9,827.49Zm40.91,6.1,30-38.6c4.87.48,9.75.93,14.63,1.31,5.79.49,11.58,1,17.38,1.33l5.49.36h.28c-.41.75-.79,1.52-1.17,2.28-.92,1.8-1.8,3.62-2.58,5.52a75.69,75.69,0,0,0-3.67,11.6c-.52,2.22-1,4.46-1.29,6.7C235.91,828.64,214.44,833.28,192.81,833.59ZM217.09,1075c-9.86-4-15.4-20-15.57-44,1.18,1.58,2.45,3.11,3.79,4.58a59.82,59.82,0,0,0,16.76,12.9l-2.74,21.08,1.26-1.67,11.59-15.26a59.84,59.84,0,0,0,17.74,2.7c1.21,0,2.42-.06,3.62-.14,1.78-.11,3.54-.27,5.28-.53C241.93,1071.37,226.71,1078.93,217.09,1075Zm66.68-68.38c-.3,1-.62,1.92-1,2.86-7.38,18-28.28,26.52-46.59,19S209,1000.2,216.36,982.21a35.08,35.08,0,0,1,1.85-3.8l.12.16a68.93,68.93,0,0,0,24.47,20.29l-2.57,19.71,12-15.83a69.51,69.51,0,0,0,21.72,3.54,66.15,66.15,0,0,0,10.14-.83C284,1005.84,283.88,1006.22,283.77,1006.6Zm27.29-50.27c-.31,1-.65,1.95-1,2.91a36.08,36.08,0,0,1-21.18,20.06,44,44,0,0,1-32.17-.8c-21.45-8.8-32.41-31.76-24.44-51.18a33.38,33.38,0,0,1,2.27-4.51l.31-.56,3.73,1.53A74.48,74.48,0,0,0,265,945l-2.53,19.49,11.86-15.63a76,76,0,0,0,24.34,4.09,71.67,71.67,0,0,0,9.39-.65l3.72,1.52C311.55,954.67,311.32,955.5,311.06,956.33Zm18.49-48.1c-3,7.38-9.55,13-18.38,15.76-9.71,3.06-20.84,2.37-31.34-1.94s-18.9-11.64-23.67-20.63c-4.32-8.18-5-16.75-2-24.13a21.34,21.34,0,0,1,1.07-2.27l.67.28,11.79,4.83A64.8,64.8,0,0,0,285.3,894.7l-2.6,20-.08.59.35-.46,11.89-15.67a64.65,64.65,0,0,0,22.46,4c1.94,0,3.87-.11,5.8-.28l7,2.88.26.11C330.15,906.67,329.87,907.45,329.55,908.23Zm42.21-57.13c-.2.53-.35,1.07-.57,1.6-12.37,30.15-45.4,45.25-73.62,33.67A53.24,53.24,0,0,1,268,855.69a60.73,60.73,0,0,1,.8-45c.78-1.91,1.66-3.75,2.6-5.53a60.72,60.72,0,0,1,25.95-25.81,56.94,56.94,0,0,1,8.32-3.48,75.84,75.84,0,0,0-10.79,9.82,68.81,68.81,0,0,0-9.67,13.71c-.7,1.35-1.39,2.7-2,4.09a62.5,62.5,0,0,0-5,20.18A62,62,0,0,1,281.81,813c.59-1.33,1.21-2.65,1.89-3.93s1.52-2.76,2.37-4.08a61.05,61.05,0,0,1,13.28-14.68A66.78,66.78,0,0,1,316,780.44c1.22-.52,2.46-1,3.7-1.36,1.73-.55,3.46-1,5.17-1.37.71-.15,1.39-.18,2.08-.28H327l.76-.1c-.69.41-1.36.81-2,1.24a42,42,0,0,0-4.38,3.24A66.92,66.92,0,0,0,311,792.51c-1.17,1.51-2.29,3-3.34,4.64a73,73,0,0,0-4,6.9,63.8,63.8,0,0,0-7.24,30.61,61.77,61.77,0,0,1,3.39-12.84c.69-1.83,1.44-3.63,2.29-5.37.24-.49.52-1,.76-1.43a64,64,0,0,1,9.88-13.92,60.68,60.68,0,0,1,14.11-11.37,35.19,35.19,0,0,1,7.23-3.23l-1.31,4.18L314,850.84l30.68-59.62a36.25,36.25,0,0,1,2.63,6.87,61.41,61.41,0,0,1,2.05,18,63,63,0,0,1-3.2,18.39c-.23.69-.52,1.37-.78,2q-.9,2.43-2,4.78a62,62,0,0,1-6,10.12,63.68,63.68,0,0,0,11.72-15.69,59.63,59.63,0,0,0,3.42-7.65,72,72,0,0,0,3.22-11.25,68.88,68.88,0,0,0,1-20.53c-.08-.92-.2-1.84-.35-2.76a39.88,39.88,0,0,1,2.11,4.36c.54,1.26,1,2.56,1.48,3.87a68.08,68.08,0,0,1,3.4,14.87,61,61,0,0,1-.86,19.78,58.57,58.57,0,0,1-2.43,8.22c-.22.63-.45,1.26-.7,1.89a62.56,62.56,0,0,1-4.36,8.7,62.78,62.78,0,0,0,10.59-17.9c.1-.27.17-.56.27-.83a66.22,66.22,0,0,0,3.93-20,75.55,75.55,0,0,0-.87-15.21c.37,2.32,2.14,4.2,3,6.44.37,1,.65,2,1,3A60.69,60.69,0,0,1,371.76,851.1Zm4.7,19.1c1.31-2,2.55-4.13,3.7-6.3s2.07-4.13,3-6.3c.21-.53.38-1.05.58-1.58a76.61,76.61,0,0,0,2.87-9c-.08.32.5.43.74.65,3.05,2.7,6.1,5.41,9.2,8,4.38,3.83,8.84,7.55,13.3,11.27,3.75,3.16,7.54,6.25,11.34,9.33l-5.73,48.59C397.88,907.12,384.55,885.33,376.46,870.2Zm72.37,79.12c-11.9-5.4-22.71-13.75-32.31-23.3l12.1-45.57,1.17.46a241.84,241.84,0,0,0,28.43,9.83,65.17,65.17,0,0,0,9.42,1.69h.09l22,67C475,958.09,460.85,954.78,448.83,949.32Zm41.71,10.24-14.49-67.65,1.34-.17c1.1-.14,2.18-.31,3.28-.47,4.81-.67,9.59-1.43,14.37-2.22,5.89-1,11.72-1.93,17.64-3.21l.55-.12,45.17,60.17,3.64,4.86C541.66,958.53,515.34,961.78,490.54,959.56Zm105.8-38.17a28.33,28.33,0,0,1-5.4,10.35c-6.2,7.73-16.16,14-28.24,18.74l-3.06-5-38.52-63,.68-.39c1.66-1,3.26-2,4.85-3l2.75-1.78c7.89-5,15.49-10.48,23.26-15.67,14.16,8.27,26.38,18.18,35.27,30C596,902.35,598.82,912.33,596.34,921.39Z" style="fill:#1a1919"/><path d="M1080.8,558.87c2.77.74,5.52,1.51,8.24,2.35,1.36.41,2.71.84,4,1.31.66.23,1.31.47,1.9.74a5.09,5.09,0,0,1,.84.39l.37.18.09,0c3.51,4.26,7.17,8.93,10.76,13.38l10.88,13.46c.47.55.91,1.1,1.46,1.67a11.27,11.27,0,0,0,1.82,1.33,35.6,35.6,0,0,0,3.88,2c2.65,1.18,5.34,2.21,8.07,3.14-2.66-1.11-5.28-2.32-7.81-3.66s-5.08-2.71-6.5-5.2l-9.93-14.14c-3.33-4.76-6.48-9.4-10-14.27-.23-.23-.48-.45-.73-.66s-.37-.24-.57-.36a7.93,7.93,0,0,0-1.08-.6c-.69-.37-1.38-.68-2.06-1-1.37-.6-2.73-1.14-4.1-1.66-2.73-1-5.46-2-8.21-3-2.15-.73-4.32-1.4-6.48-2.12a63.2,63.2,0,0,0,16.62-2.45c29.53-8.8,58.64-42,57.68-65.84-.28-6.83-3.48-18.86-21.78-22.74-39.51-8.4-93,27-112.44,46.31l-.49.48a41.1,41.1,0,0,0-3.67-2.31l-.44-.26.05-.13c.09-.21.17-.41.25-.62s.29-.73.44-1.08l4-9.74c2.67-6.5,5.35-13,7.92-19.59,1.28-3.3,2.54-6.59,3.68-10,.28-.84.57-1.69.8-2.59l.38-1.32.27-1.51a13.32,13.32,0,0,0-.12-2.9l-.32-2.65c-1-7-2-13.92-3.16-20.86.34,7,.66,14,.82,21l0,2.61a10.9,10.9,0,0,1-.14,2.33l-.33,1.06-.47,1.17c-.3.77-.67,1.56-1,2.34-1.45,3.13-3.05,6.24-4.67,9.33-3.25,6.19-6.62,12.35-10,18.5l-5,9.28-1.21,2.23a36.1,36.1,0,0,0-7.09-1.19,19.17,19.17,0,0,0-1.41-15.57A18.84,18.84,0,0,0,986,477.4a16.74,16.74,0,0,0-2.45-.9l.64-.22,0,.06,0-.32c0-.22.08-.46.15-.73.11-.51.25-1,.4-1.56.29-1.05.61-2.11.94-3.16.66-2.1,1.35-4.21,2.06-6.3q2.14-6.3,4.45-12.53l.59-1.56a4.94,4.94,0,0,0,.37-1.76l.16-3.35.18-6.66.25-13.32L993,438.38l-.47,6.64-.3,3.3a9.72,9.72,0,0,1-1,3q-2.58,6.15-5,12.37-1.21,3.1-2.36,6.25c-.38,1.05-.75,2.1-1.1,3.18-.18.53-.35,1.08-.5,1.64a8.91,8.91,0,0,0-.22.89c0,.17-.06.27-.09.49a16.67,16.67,0,0,0-8.32.6,16.5,16.5,0,0,0-6.15,3.75c-.22-.19-.44-.37-.64-.51-.47-.35-.95-.68-1.42-1-.93-.64-1.88-1.24-2.83-1.84q-2.85-1.77-5.73-3.48-5.75-3.42-11.58-6.7c-.92-.6-2.09-1-2.65-1.74-.76-.79-1.51-1.62-2.25-2.44l-4.43-5-8.77-10.08,8.32,10.46,4.21,5.19c.71.86,1.42,1.72,2.17,2.57a6.74,6.74,0,0,0,.66.68,6.5,6.5,0,0,0,.73.48l1.42.88c3.77,2.36,7.53,4.75,11.24,7.19,1.86,1.22,3.71,2.45,5.53,3.71.92.62,1.82,1.26,2.7,1.91.45.32.87.65,1.28,1l.49.42A18.85,18.85,0,0,0,963,500a19.26,19.26,0,0,0,7.57,9.91,36.52,36.52,0,0,0-5.77,6.4l-3.55-1.75-9.69-4.73c-6.45-3.15-12.89-6.31-19.27-9.55-3.19-1.63-6.36-3.28-9.45-5a46.66,46.66,0,0,1-4.4-2.7c-1.15-.72-2.15-2.42-3.24-3.79C911,483.11,907,477.33,903,471.55l25.57-44.29-42.27-73.21H812l-37.75-65.37H689.74L652.43,353.3H577.12l-37.31,64.62H464.36l-.3.52-1,1.66-.59,1c-.14-.31-.28-.64-.44-1s-.31-.88-.47-1.32l-.17-1.34c-.07-.94-.08-1.95-.13-2.92,0-2-.05-4,0-6,0-4,.13-8,.26-11.94q.75-23.88,2.54-47.7c.62-7.92,1.32-15.85,2.34-23.62.13-1,.27-1.86.38-3s.22-2.33.23-3.47l-.13-3.39-.42-3.29a68.45,68.45,0,0,0-3.49-12.4,123.77,123.77,0,0,0-14.18-25.68c.93-3.85,1.81-7.69,2.59-11.49q6,7.17,11.9,14.37c9.81,12,19.57,24,28.92,36.25,2.34,3.06,4.63,6.15,6.84,9.27,1.11,1.56,2.19,3.13,3.19,4.71.51.78,1,1.57,1.42,2.34a10.76,10.76,0,0,1,.57,1.11l.24.5.06.11,0,0v1.27l.09,4.35.29,17.44c.15,7.75.27,15.5.52,23.27,0,1,.05,1.92.17,3a15.91,15.91,0,0,0,.84,2.92,46.93,46.93,0,0,0,2.49,5.32c1.84,3.43,3.86,6.75,6,10-1.92-3.37-3.71-6.81-5.3-10.32a49.34,49.34,0,0,1-2.07-5.36,14.07,14.07,0,0,1-.59-2.7c0-.88,0-1.87,0-2.83.28-7.72.68-15.47,1.07-23.21l.58-11.61L509,337l.14-2.91.07-1.45,0-.73,0-.37a2,2,0,0,0,0-.51,12,12,0,0,0-.23-1.31c-.1-.32-.2-.55-.3-.84a14.93,14.93,0,0,0-.66-1.53c-.44-1-.92-1.85-1.4-2.73-1-1.76-2-3.45-3-5.13q-3.07-5-6.31-9.89c-2.54-3.84-5.15-7.61-7.74-11.39a87.44,87.44,0,0,0,22.82,13.48c11.26,4.34,24.43,6.36,37.83,6.36,31.12,0,63.48-10.85,76-28.45,8.76-12.33,7.2-26.64-4.39-40.3-35-41.3-121.3-47.37-157.12-42.64a53.14,53.14,0,0,0-2.68-7.54l2.29-1.36,12.25-7.08c8.19-4.72,16.4-9.45,24.55-14.33,4.07-2.45,8.12-4.92,12.12-7.61,1-.66,2-1.33,3-2.08l1.48-1.11,1.53-1.37a17.91,17.91,0,0,0,2.26-3.2l1.84-3.08c4.74-8.21,9.28-16.5,13.8-24.8-5.41,7.74-10.85,15.49-16.44,23.07l-2.11,2.8a15.09,15.09,0,0,1-2.08,2.37l-1.21.86-1.47.84c-1,.58-2,1.12-3,1.65-4.11,2.14-8.37,4.13-12.65,6.09-8.55,3.91-17.2,7.69-25.85,11.47l-13,5.7-3.11,1.4a49.19,49.19,0,0,0-6.57-7.12,26.07,26.07,0,0,0,10.14-30.43,24.34,24.34,0,0,0-3.29-6.24l.85.3V146l.31-.29c.21-.19.44-.39.69-.59l.07-.07c.55-.45,1.12-.89,1.71-1.33q1.77-1.32,3.6-2.59c2.43-1.7,4.9-3.36,7.38-5q7.45-4.93,15.05-9.67l1.9-1.18a6.46,6.46,0,0,0,1.85-1.58c1-1.13,2-2.27,2.92-3.43l5.68-6.93,11.22-14-11.82,13.46-6,6.67c-1,1.1-2,2.21-3,3.26a4.84,4.84,0,0,1-1.58,1.25l-2,1.09q-7.82,4.42-15.5,9-3.86,2.31-7.66,4.72c-1.27.8-2.53,1.62-3.78,2.48-.63.42-1.26.86-1.89,1.34-.21.14-.42.33-.64.51l-.32.26c-.17.15-.29.23-.5.44l-.41-.41a22.2,22.2,0,0,0-18.54-6.88h0v-.05c-.08-.36-.16-.72-.25-1q-.33-1.14-.69-2.22c-.48-1.45-1-2.86-1.51-4.28-1-2.83-2.12-5.63-3.22-8.42-2.21-5.59-4.48-11.13-6.81-16.66l-.88-2.07a6.74,6.74,0,0,1-.38-1c0-.21-.1-.61-.14-1-.16-1.46-.27-3-.39-4.45l-.6-9-1-18,.25,18,.21,9c.05,1.5.1,3,.2,4.52a8.31,8.31,0,0,0,.14,1.26,9.73,9.73,0,0,0,.38,1.12l.78,2.1q3.12,8.42,6.06,16.9c1,2.82,1.93,5.66,2.84,8.5.45,1.41.89,2.83,1.29,4.25.19.64.35,1.28.5,1.91l.05.19a8.3,8.3,0,0,1,.18.86,22.44,22.44,0,0,0-3.47,1.16,25.52,25.52,0,0,0-14.31,15.37,25.79,25.79,0,0,0-.1,16.73,49.67,49.67,0,0,0-11.41,2.09c-.77-1.59-1.55-3.17-2.34-4.77l-6.41-13c-4.27-8.66-8.53-17.32-12.65-26-2.05-4.35-4.07-8.72-5.95-13.1a66.69,66.69,0,0,1-2.46-6.48,5.63,5.63,0,0,1-.32-1.44c0-.47,0-1.12-.05-1.68l.05-3.58c.26-9.61.77-19.28,1.28-28.93-1.56,9.55-3.11,19.07-4.42,28.69l-.45,3.64c-.05.65-.13,1.21-.15,1.94a8.35,8.35,0,0,0,.2,2.12,63.51,63.51,0,0,0,1.88,7.32c1.43,4.69,3,9.29,4.56,13.87,3.17,9.17,6.48,18.28,9.79,27.36l5,13.62c.6,1.68,1.22,3.39,1.84,5.1-1.07.63-2.12,1.29-3.15,2-27.55-26.3-96-70.79-147.17-60.18-17.54,3.64-27.57,14-28.26,29.07-1.39,30.85,37.75,75.8,76.14,87.44a73,73,0,0,0,7.66,1.83c-1.93.63-3.87,1.25-5.8,1.9-3.7,1.25-7.38,2.54-11.06,3.92-1.84.69-3.68,1.41-5.52,2.2-.92.39-1.84.81-2.79,1.29a13.75,13.75,0,0,0-1.45.81c-.26.16-.48.28-.76.47a12.05,12.05,0,0,0-1,.89l-.33.39-.22.3L269,250l-.84,1.2-1.67,2.38-10,14.27c-4.47,6.34-8.91,12.69-13.45,19-.57.77-1.14,1.58-1.71,2.24a14.94,14.94,0,0,1-2.13,1.77,47.57,47.57,0,0,1-4.93,2.95c-3.42,1.79-6.95,3.4-10.53,4.88,3.68-1.24,7.31-2.61,10.88-4.17a50.5,50.5,0,0,0,5.23-2.67A16.48,16.48,0,0,0,242.3,290c.74-.77,1.34-1.51,2-2.25,5-6,9.83-12,14.72-18l7.31-9.05,3.66-4.52,1.82-2.26.92-1.12.45-.56.23-.28.11-.14h.05l.12-.05.5-.25a11.18,11.18,0,0,1,1.13-.52c.81-.35,1.67-.67,2.56-1,1.76-.62,3.58-1.2,5.41-1.74,3.66-1.1,7.37-2.13,11.1-3.11,8.68-2.27,17.43-4.39,26.19-6.44,14.17-.58,28.1-3.67,39.68-7.15-1.48,3-3,6-4.37,9.15a125.28,125.28,0,0,0-29.05,11.37,68.62,68.62,0,0,0-10.55,7.38l-2.42,2.28-2.24,2.54c-.72.89-1.36,1.89-2,2.83s-1.06,1.69-1.6,2.54c-4.13,6.66-8.61,13.23-13.15,19.75Q281.14,309,266.57,327.94c-2.43,3.16-4.87,6.3-7.37,9.4-1.24,1.56-2.52,3.06-3.79,4.59-.65.72-1.3,1.49-1.95,2.18l-1,.93c-.4.24-.75.51-1.19.72a91.45,91.45,0,0,1-11,4.45c-3.76,1.32-7.56,2.55-11.37,3.73q5.83-1.38,11.61-3A90.38,90.38,0,0,0,252,347.16a13.66,13.66,0,0,0,1.42-.73c.43-.32.84-.69,1.27-1,.77-.71,1.45-1.42,2.18-2.13,1.39-1.46,2.78-2.9,4.13-4.38,2.71-2.95,5.37-5.93,8-8.94q15.83-18,30.87-36.73c5-6.27,9.95-12.57,14.67-19.18.58-.8,1.21-1.73,1.75-2.42s1-1.31,1.6-1.93l1.84-1.83,2.06-1.69a60.43,60.43,0,0,1,9.43-5.7,107.73,107.73,0,0,1,19.06-6.73c-2.61,6.39-5.1,12.91-7.39,19.57C321.7,334.9,316.08,406.19,347.4,417a23.52,23.52,0,0,0,7.62,1.27c29.86,0,64.82-55.05,84.32-111.75,2-5.79,3.79-11.6,5.46-17.38l.3-1.09a104.94,104.94,0,0,1,9.19,15.46A60.72,60.72,0,0,1,458,313.86l.51,2.62.28,2.58c.05.85,0,1.66,0,2.5s-.12,2-.18,3c-.53,8.11-.7,16.11-.8,24.13q-.23,24,.6,48c.13,4,.3,8,.54,12,.09,2,.26,4,.41,6,.11,1,.19,2,.34,3,.1.54.19,1.09.32,1.61s.39,1,.63,1.47c.39.76.71,1.36,1,1.89l-34.58,59.89H351.74l-42.27,73.22L351.74,629h75.31l26.29,45.54.11.19,10.91,18.9h74.3L576.4,759h75.31L689,823.58h84.55l36.87-63.87H885.6l42.28-73.22-9.81-17c.93-1.49,1.83-3,2.67-4.54a35.88,35.88,0,0,0,1.87-4,11.81,11.81,0,0,0,.64-2.16c.09-.79.1-1.49.14-2.22l.45-17.3c.14-5.7.22-11.64.41-17.16l0-.08.18-.37a8.25,8.25,0,0,1,.43-.82c.32-.58.68-1.16,1.06-1.74.76-1.17,1.57-2.33,2.39-3.49q2.49-3.46,5.12-6.87c3.06-4,6.2-7.91,9.36-11.82,9.53-7.14,17.49-16.39,23.51-24.68.41,2,.82,3.93,1.28,5.92a93.21,93.21,0,0,0-11.91,19.9,50.23,50.23,0,0,0-2.85,9.13l-.39,2.44-.16,2.52c0,.84.06,1.72.09,2.58s.15,1.47.22,2.22c.6,5.8,1,11.7,1.25,17.59q.82,17.71.88,35.51c0,3,0,5.92-.06,8.87l-.14,4.43-.16,2.17-.15,1c-.12.32-.21.64-.37,1-2.59,5.2-6.08,10.11-9.43,15,3.68-4.67,7.43-9.22,10.48-14.47a10.55,10.55,0,0,0,.5-1.07c.11-.39.18-.79.27-1.19l.32-2.25.43-4.45c.26-3,.47-5.93.65-8.9q1.13-17.8,1.46-35.64c.09-6,.13-11.92-.09-18,0-.73-.08-1.56-.07-2.21s0-1.24.05-1.87l.26-1.91.44-1.93a44.45,44.45,0,0,1,3-7.64,81,81,0,0,1,8.14-12.63c1.38,5,2.88,9.91,4.56,14.88,8.33,24.58,19.54,46.6,31.57,62,11,14.08,21.53,21.33,30.85,21.33a17.35,17.35,0,0,0,5.55-.9c10.59-3.6,16.29-16.85,16.49-38.35.17-19.56-4.32-43.86-12.64-68.44-1.53-4.5-3.18-8.89-4.9-13.22a77.61,77.61,0,0,1,11.62,4.39,45,45,0,0,1,7,4.26l1.52,1.27,1.36,1.37c.43.46.78,1,1.18,1.44s.87,1.21,1.3,1.8c3.49,4.93,7.14,9.63,10.84,14.31q11.13,14,22.82,27.41,2.92,3.38,5.93,6.67c1,1.11,2,2.19,3,3.27.54.54,1.05,1.07,1.62,1.6.31.26.62.53.94.77s.7.41,1,.56c5.6,2.3,11.36,3.64,17.12,5.11-5.62-1.83-11.38-3.59-16.59-6.16-.33-.16-.59-.36-.89-.54l-.72-.69-1.45-1.62-2.8-3.44q-2.76-3.47-5.44-7-10.76-14.13-20.88-28.72c-3.35-4.86-6.67-9.76-9.71-14.73-.4-.63-.72-1.2-1.18-1.9s-1-1.44-1.49-2.1l-1.66-1.9-1.79-1.7a51.14,51.14,0,0,0-7.82-5.53,90.71,90.71,0,0,0-19-7.79c-1.26-2.85-2.56-5.66-3.9-8.39,4.5,1,9,1.95,13.5,3C1058.51,553.29,1069.72,555.91,1080.8,558.87ZM515.53,303.69c-8.91-3.44-17.15-9.05-24.57-15.6l7-34.32,1.62.54A176.06,176.06,0,0,0,520.07,260a48.4,48.4,0,0,0,7,.83h.06l19.13,48.54C535.27,309,524.65,307.21,515.53,303.69Zm31.22,5.74-13.59-49.29,1-.19c1.33-.25,2.64-.53,4-.8q4.42-.91,8.84-1.91c4.26-1,8.49-1.91,12.76-3.1l.4-.11,35,41.36,3.77,4.46C584.21,306.45,565.05,310,546.75,309.43Zm68.56-54.54c6.55,7.72,9,15.09,7.47,22a21.32,21.32,0,0,1-3.54,7.73c-4.23,6-11.29,11-20,15l-33.54-48.31.48-.32.41-.29c1.58-1.07,3.09-2.19,4.61-3.3l.33-.24c5.68-4.12,11.12-8.51,16.71-12.71C599,239.93,608.32,246.65,615.31,254.89ZM466.36,215.12c1.12-.14,2.32-.27,3.55-.39,26.07-2.56,75.21.4,111.94,16.72.88.39,1.76.78,2.62,1.19s1.81.85,2.69,1.29c-2.16,1.13-4.29,2.32-6.41,3.51-3.8,2.15-7.55,4.36-11.28,6.58l-.43.25-5.17,3-.12.07c-.88.5-1.79,1-2.57,1.37l-.56.22-.54.12-1.52.32-12.75,2.32-9.32,1.66L533,254l-2.42.42-.74.13a12.14,12.14,0,0,1-2.64.17,45.62,45.62,0,0,1-6-.81,210.27,210.27,0,0,1-20.47-5.3l-4-1.2c-.45-.3-.91-.58-1.36-.87-3-2-6-3.89-9-5.77-3.6-2.28-7.19-4.55-10.84-6.75q-3.92-2.4-7.88-4.73l-1.44-.86A54.54,54.54,0,0,0,466.36,215.12ZM462.52,242c.37-.88.76-1.74,1.07-2.65l.13-.32a55.36,55.36,0,0,0,2-7.91l1.11.87c2.18,1.71,4.37,3.43,6.58,5.11,3.37,2.61,6.79,5.15,10.21,7.68,2.87,2.15,5.78,4.24,8.69,6.33l-2.17,36.33c-13.66-12.29-24.4-27.69-31-38.5A57.86,57.86,0,0,0,462.52,242Zm-15-82.27c.24-4,1.63-7.4,3.37-8.73a2.67,2.67,0,0,1,1.74-.61c2.5.15,4.24,4.59,3.91,9.91,0,.52-.09,1-.16,1.51-.63,4.57-2.69,8-4.95,7.83C449,169.44,447.22,165,447.54,159.69Zm-24.07-10.63c.25-.4.52-.77.79-1.14,2.74-3.78,6.22-5.84,8.15-4.64,1.13.71,1.47,2.41,1.14,4.51a16.94,16.94,0,0,1-2.42,6.07c-2.82,4.51-6.82,7.1-8.94,5.77S420.64,153.58,423.47,149.06Zm-139.65-20c.92.22,1.84.41,2.77.65,37,9.6,75.16,35.25,94.8,53.09.61.56,1.27,1.14,1.84,1.68a54.52,54.52,0,0,0-10.06,13l-.13,0c-1.82-.22-3.63-.46-5.45-.67-4.23-.51-8.47-.93-12.7-1.35-3-.33-6.09-.58-9.14-.84-1-.1-2.07-.21-3.1-.29l-2.65-1a221,221,0,0,1-20.67-8.91,45.61,45.61,0,0,1-5.2-3,12,12,0,0,1-1.76-1.53l-.22-.22L310,177.23l-1.61-1.78-7.08-7.89-8.63-9.67-1-1.19-.35-.42-.3-.52c-.31-.59-.61-1.29-.91-2-.12-.27-.23-.53-.33-.79l-2.42-6c-1.58-4.05-3.18-8.1-4.84-12.13-.94-2.25-1.89-4.5-2.9-6.72C281,128.4,282.42,128.77,283.82,129.1Zm-60.68,19.26a20.21,20.21,0,0,1,3.72-11.24c3.49-4.78,9.39-8.07,17.69-9.79,10.58-2.2,22.09-1.74,33.87.54,1.82,6.75,3.41,13.56,5.35,20.3.12.39.22.78.34,1.18.47,1.71.95,3.43,1.52,5.14l.06.19.12.36-49.95,15.52-6.21,1.92C225.26,164,222.81,155.67,223.14,148.36Zm6.73,24.54,6.59-1.37,52.14-10.91.25.34c2.63,3.56,5.39,6.91,8.15,10.29q3.22,3.94,6.53,7.81c.63.74,1.25,1.48,1.89,2.21l.65.74-10,7.44-31,23.06C250.27,201.68,237.33,187.11,229.87,172.9Zm63.31,54.29c-9.36-2.83-18.85-7.93-27.71-14.37l7.36-4.35,37.57-22.15.06,0a46.77,46.77,0,0,0,6,3.63,179.74,179.74,0,0,0,21,8.53l.32.11L322.13,230C312.26,230.61,302.31,230,293.18,227.19Zm30,2.76,20.65-30c3.58.14,7.16.28,10.75.35,4.26.11,8.51.22,12.77.23,1.42,0,2.83,0,4.24,0a55.89,55.89,0,0,0-2.42,5.89,54,54,0,0,0-2,7.61,58.94,58.94,0,0,0-.84,6.43C354.72,224.53,339.09,228.84,323.18,230ZM351.5,405.06c-7.39-2.54-12.12-14-13.27-31.59a45.23,45.23,0,0,0,4.72,4.77A44,44,0,0,0,354,385.43l-.84,11.72L352.9,401l2.05-3,6.63-9.88a44,44,0,0,0,10.55,1.3,40,40,0,0,0,4.52-.26,47,47,0,0,0,4.75-.75C369.67,401.49,358.9,407.61,351.5,405.06Zm45.69-52.34c-.14.54-.25,1.08-.43,1.61A26.39,26.39,0,0,1,348.34,357,25.46,25.46,0,0,1,347,337.21a30,30,0,0,1,1.21-2.87c.26.31.54.6.8.9a50.35,50.35,0,0,0,18,13l-1,14.49v.07l0-.06,8.08-12a50.94,50.94,0,0,0,13.07,1.73,49.31,49.31,0,0,0,10.34-1.1C397.46,351.81,397.31,352.26,397.19,352.72Zm17.89-38c-.15.58-.32,1.15-.51,1.72-5,14.54-22.15,21.88-38.22,16.36s-25.05-21.86-20-36.4a25,25,0,0,1,1.67-3.82l.61.21,2.26.78A54.59,54.59,0,0,0,381,307.92l-1,14.38,8-12a56.38,56.38,0,0,0,14.87,2.07,52,52,0,0,0,9.92-1l2.8,1Q415.4,313.57,415.08,314.72Zm11.61-36.42c-1.89,5.53-6.43,9.9-12.78,12.3a34,34,0,0,1-23-.08c-15.57-5.36-24.86-19.56-20.7-31.64a17.14,17.14,0,0,1,.69-1.72l1.56.54,8,2.73a47.54,47.54,0,0,0,13.33,9.82l-1.09,15.18,1.44-2.14,6.85-10.2a46.1,46.1,0,0,0,20.79,1.56l5.21,1.79.26.09A17.91,17.91,0,0,1,426.69,278.3Zm-24.32-14.63c-21.14-7.27-32-31.56-24.27-54.14a45.74,45.74,0,0,1,3.23-7.26,44.73,44.73,0,0,1,12.26-14.15c.91-.69,1.85-1.34,2.8-2l-.35.41a52.72,52.72,0,0,0-4.89,7.29,43.55,43.55,0,0,0-2.89,6.24,45.94,45.94,0,0,0-2.83,15,45.2,45.2,0,0,1,3.44-11c.48-1,1-2,1.53-3h0a44.69,44.69,0,0,1,9.08-11.29,49.3,49.3,0,0,1,11.75-8c.69-.34,1.39-.62,2.09-.9,1.13-.45,2.26-.85,3.38-1.18.47,0,1-.06,1.42-.06.23,0,.45,0,.68,0a31.56,31.56,0,0,0-3.57,2.87,50.79,50.79,0,0,0-9.35,11.81c-.29.51-.55,1-.83,1.56A48.16,48.16,0,0,0,400.41,208a46.47,46.47,0,0,0-1.15,14.3,45.6,45.6,0,0,1,3.17-13l.22-.58a42.39,42.39,0,0,1,2.1-4.28,48.59,48.59,0,0,1,5-7.39,44.51,44.51,0,0,1,9.84-8.91,26.69,26.69,0,0,1,5.16-2.67l-12,47.92,19.9-44.89h0a26.52,26.52,0,0,1,2.21,4.88,44.86,44.86,0,0,1,2.27,13.08,46.52,46.52,0,0,1-1.56,13.59c-.27,1-.58,2-.92,2.92-.16.48-.34.95-.52,1.42a46,46,0,0,1-4.24,8.44,47,47,0,0,0,7.9-12,43.08,43.08,0,0,0,1.66-4.17,52.2,52.2,0,0,0,2.39-9.94,50.72,50.72,0,0,0-.1-15.06,31.14,31.14,0,0,0-.83-3.85,34.2,34.2,0,0,1,3.21,5.28c.47.93.89,1.89,1.3,2.87a49.74,49.74,0,0,1,3.07,10.63,43.83,43.83,0,0,1-4.46,28.58,45.77,45.77,0,0,0,6.62-12.57c.12-.33.25-.64.36-1a48.33,48.33,0,0,0,2.19-15.44c0-1.38-.1-2.76-.22-4.13a42.16,42.16,0,0,1,2.57,6.89,44.81,44.81,0,0,1-.75,26.8l0,.09C447,258.49,423.5,270.94,402.37,263.67Zm687.47,277.92a61.34,61.34,0,0,1-21.78,1.92l-10.93-22.25c.79-.26,1.58-.54,2.36-.82,1.14-.4,2.26-.81,3.39-1.23,3.39-1.29,6.75-2.69,10.09-4.3a35.32,35.32,0,0,0,4.48-2.68l0,0,32.31,19.25A69.86,69.86,0,0,1,1089.84,541.59Zm20.38-10.45-3.68-2.76L1080.72,509l.49-.55c.61-.69,1.19-1.41,1.79-2.11.91-1.06,1.82-2.13,2.72-3.21.59-.7,1.2-1.39,1.78-2.1,2.07-2.5,4.13-5,6.1-7.62l.18-.25,41.41,8.86,1.14.24C1130.76,512.66,1121.15,523.29,1110.22,531.14Zm-7.69-61.36c8.31-1.48,16.42-1.72,23.89-.13,9.76,2.07,14.65,6.87,15,14.68a29.1,29.1,0,0,1-1.71,10.3,49.28,49.28,0,0,1-3.14,7.24l-1-.32L1095.88,489l.14-.4c.26-.78.49-1.56.72-2.34l.68-2.36c1.35-4.61,2.48-9.28,3.72-13.91C1101.6,469.93,1102.06,469.86,1102.53,469.78Zm-80.76,43.87c1.47-1.48,3.22-3.09,5.13-4.76,15.74-13.75,45.35-32.92,73.13-38.64-1.9,4.18-3.55,8.47-5.25,12.71l0,.06-1.82,4.45c-.3.72-.62,1.48-.93,2.08l-.23.38-.26.32-.75.87-6.44,7.16-6.5,7.16-1.61,1.76a7.66,7.66,0,0,1-1,.94l-.46.36a33.81,33.81,0,0,1-3.88,2.24c-3.2,1.61-6.57,3-10,4.42-1.31.53-2.62,1.05-3.94,1.56l-3.46,1.33c-6.19.48-12.37,1.08-18.55,1.76l-1.82.22c-2.07.24-4.14.47-6.2.73a41.26,41.26,0,0,0-4.47-6.16c-.26-.3-.48-.62-.74-.9Zm-38.32-32.6c1.54-1,4.58.77,6.8,4.05s2.78,6.77,1.25,7.81-4.59-.77-6.81-4S981.91,482.09,983.45,481.05Zm-13.7,19.31c-1.84.18-3.66-2.86-4-6.8s.78-7.28,2.63-7.47l.57.07c1.63.41,3.13,3.2,3.49,6.73v.19C972.73,496.93,971.57,500.18,969.75,500.36ZM876.39,371.24l32.36,56-32.36,56H812L779.52,427l3.68-6.39,28.5-49.36ZM698.94,565.1h64.7l31.87,55.2.48.82-32.35,56h-64.7l-32.34-56ZM651,612.53H586.65l-32.51-56.3,3.68-6.39,28.5-49.36H651l32.34,56Zm48.64-65.37-32.34-56,32.34-56H764l32,55.47.47.84-32.18,55.74ZM671,355.51l28.66-49.64h64.7l31.87,55.19.48.83-32.35,56h-64.7l-32.34-56ZM558.38,420.13l28.67-49.64h64.69l31.87,55.2.48.83-32.35,56H587.05l-32.35-56ZM445.62,484.75l28.67-49.64H539l31.87,55.19.48.84-32.35,56H474.29l-32.35-56Zm-19.26,127H361.67l-32.35-56,32.35-56h64.69l31.87,55.2.48.83Zm47.93,64.62-32.35-56,32.35-56h64.37l32,55.48.47.83L539,676.4ZM651,741.77H586.33l-32.35-56,32.35-56H651l31.87,55.2.48.83ZM763.64,806.4h-64.7l-32.34-56,32.34-56h64.38l32,55.47.48.84Zm112-63.88H811.31l-32.51-56.3L811,630.47h64.69l31.87,55.19.48.83Zm54-136.44c-1.6,2.41-3.19,4.84-4.72,7.32-.77,1.25-1.53,2.51-2.25,3.81-.36.65-.71,1.31-1.05,2a10.07,10.07,0,0,0-.49,1.13l-.23.63a8.26,8.26,0,0,0-.18,1c.19,6,.51,11.58.76,17.39l.71,17.26c.4,2.85-.87,5.43-2,8.09-.71,1.54-1.48,3.06-2.29,4.56l-32.33-56H811.31l-32.64-56.53,32.49-56.27h75.16L903,471.6c3.34,6.18,6.69,12.34,10.21,18.44l1.39,2.35c.26.41.47.77.79,1.21a6.09,6.09,0,0,0,1.09,1.16,48.94,48.94,0,0,0,4.43,3.45c3,2.1,6,4.11,9,6.08,6,3.95,12.12,7.81,18.2,11.65l9.11,5.74,3.44,2.19c-.21.5-.43,1-.62,1.52-28.35-3-89.57,2-115.12,31.86-12.18,14.22-7.4,25.71-3.47,31.3,9.61,13.66,33.76,22,57.27,22a81.18,81.18,0,0,0,28.56-4.8c1.26-.48,2.49-1,3.72-1.6C930.54,604.81,930.09,605.43,929.66,606.08Zm-60.88-17.62,22.85-26.78.3.09c3.17.9,6.31,1.61,9.48,2.34s6.31,1.45,9.5,2.07l.72.14-10,35.51c-13.45.41-27.55-2.19-38.28-7.05ZM863,594.58c-6.32-2.92-11.45-6.62-14.51-11-3.92-5.57-3.68-11.44.75-17.88a33.54,33.54,0,0,1,2.21-2.87c5.23-6.12,12.25-11.06,20.25-15.06,3.81,2.93,7.57,5.92,11.46,8.77,1,.74,2,1.5,3.09,2.23.29.21.57.43.88.64l.35.24L867.61,588ZM902.26,560l-9.47-1.77-1-.21-.15,0-.4-.09-.41-.17c-.61-.28-1.33-.69-2-1.08l-.79-.47-3.35-2c-4-2.33-7.89-4.76-12-6.93,2.23-1.09,4.56-2.07,6.93-3l2.22-.86c26-9.69,58.17-11.38,76.15-9.62a40.74,40.74,0,0,0-.3,6.07c0,1.09.11,2.18.23,3.28.06.59.11,1.18.2,1.77.21,1.39-2.41,1.42-3.61,2.15q-4.68,2.84-9.31,5.75l-4,2.57c-.82.52-1.64,1-2.45,1.56a185.41,185.41,0,0,1-18.24,4.75l-2.11.35a17.67,17.67,0,0,1-2.32.23,8.93,8.93,0,0,1-2-.13l-.13,0-2.23-.4Zm21.94,37.74a69.75,69.75,0,0,1-22,4.08l13.94-34.93h.05l.28,0a37.38,37.38,0,0,0,4.9-.57,133.41,133.41,0,0,0,16.44-4.59L942.67,586A61.48,61.48,0,0,1,924.2,597.73Zm19.22-12.39-.23-4.27L942,559.72l0,0c1.15-.81,2.27-1.67,3.42-2.5,3.56-2.58,7.12-5.16,10.63-7.82.85-.63,1.68-1.29,2.52-1.93a42.35,42.35,0,0,0,1.23,4.57,41.52,41.52,0,0,0,3.29,7.18c.26.46.49.94.77,1.39C959.07,568,952.05,577.51,943.42,585.34Zm23.09-35.59a33.06,33.06,0,0,1,2.38-26.94q-.37,2-.57,3.9c-.11,1.09-.19,2.19-.21,3.28a35.78,35.78,0,0,0,1.57,11.49,34,34,0,0,0,5.15,10.09,32.72,32.72,0,0,1-3.23-21.26c0-.29.13-.57.18-.86a36.16,36.16,0,0,1,3.12-9.16,19.47,19.47,0,0,1,1.09-1.95c.5-.82,1-1.61,1.58-2.34.24-.29.5-.59.75-.87l.35-.35c-.14.42-.31.84-.43,1.25a21.39,21.39,0,0,0-.64,2.89,36.38,36.38,0,0,0-.42,8.11c.06,1,.15,2.07.29,3.09a36.63,36.63,0,0,0,3,10.5,34.83,34.83,0,0,0,5.83,8.93A34,34,0,0,1,981,529.93c0-1.22.17-2.43.33-3.63a31.2,31.2,0,0,1,1.4-6.09,19.79,19.79,0,0,1,1.82-3.91l.33.72.63,1.45,13.77,31.47-8.71-35.45a19.39,19.39,0,0,1,3.53,1.87,28.75,28.75,0,0,1,2.34,1.73,35.4,35.4,0,0,1,4.94,4.93,34,34,0,0,1,7.73,18.8,34.83,34.83,0,0,0-.8-10.64,36.67,36.67,0,0,0-4-10.14,37.68,37.68,0,0,0-6.91-8.81,23,23,0,0,0-2.24-1.89,25.49,25.49,0,0,1,4.3,1.65,33.33,33.33,0,0,1,3.61,2,38.06,38.06,0,0,1,5.1,3.9c.79.74,1.55,1.52,2.29,2.32a32.19,32.19,0,0,1,4.43,6.11,33.31,33.31,0,0,1,3.64,10.41,33.84,33.84,0,0,0-2.05-11.14,35.93,35.93,0,0,0-5.73-10.08,42.62,42.62,0,0,0-4.3-4.62,32.75,32.75,0,0,1,13.12,11.28q1,1.42,1.8,3a34.42,34.42,0,0,1,2.3,5.21,33.45,33.45,0,0,1,.38,20.45,29.48,29.48,0,0,1-18.59,19.71,28.36,28.36,0,0,1-5.8,1.3,28.74,28.74,0,0,1-6.62,0C981.36,570.49,970.73,562.17,966.51,549.75Zm17.8,32.61c-.15-.43-.27-.87-.38-1.32l5.74-1.94,1.29-.44a35.3,35.3,0,0,0,5.35.42,34.85,34.85,0,0,0,7-.73l4.85,7.3,1.41,2.12-.15-2.28-.59-8.76c.38-.14.72-.32,1.09-.48.84-.35,1.69-.7,2.5-1.11a35.43,35.43,0,0,0,9.3-6.91l4.12-1.4c.19.42.36.84.51,1.27a14.08,14.08,0,0,1,.45,7.11c-1.29,6.87-7.33,13.43-15.95,16.35a25.21,25.21,0,0,1-17.1,0C989.06,589.74,985.7,586.48,984.31,582.36Zm65.33,71.14a59.31,59.31,0,0,1-2,12.29c-1.74,6-4.42,9.9-7.83,11.06-5.35,1.82-13.38-2.81-22-12.5a32.51,32.51,0,0,0,6.81.75,32,32,0,0,0,4.36-.32c1.13-.16,2.26-.35,3.39-.62l6.4,9.63-.77-11.55c.28-.13.54-.29.82-.42.94-.45,1.87-.92,2.75-1.45A32.62,32.62,0,0,0,1049.64,653.5Zm-7.21-29.21a19.47,19.47,0,0,1,.9,2.15,18.91,18.91,0,0,1,.55,10.06A19.73,19.73,0,0,1,1016,650a19,19,0,0,1-9.74-11,18.75,18.75,0,0,1-.58-2.2,37.45,37.45,0,0,0,7,.79c.26,0,.51,0,.77,0a38,38,0,0,0,9.61-1.26l5.56,8.35.44.67,0-.7-.68-10.13c.41-.16.77-.39,1.16-.57.82-.38,1.64-.76,2.42-1.19A37.13,37.13,0,0,0,1042.43,624.29Zm-7.09-31.08a18.31,18.31,0,0,1,1.23,2.84,19.13,19.13,0,0,1,.46,10.59,23.39,23.39,0,0,1-15.49,16.4,23.93,23.93,0,0,1-17.52-.66,19.29,19.29,0,0,1-11.58-14.63l2.09-.71a37.37,37.37,0,0,0,3.84.56,35.18,35.18,0,0,0,3.71.19,42,42,0,0,0,10.88-1.48l5.93,8.91-.72-10.69c.42-.17.81-.4,1.23-.58.79-.36,1.58-.73,2.35-1.13a40.26,40.26,0,0,0,11.45-8.88Zm-3.46-58.4a38.44,38.44,0,0,0-4-12.23c2,0,4.06,0,6.09,0h1.15q8.76,0,17.49-.35L1067,543.43C1053.56,542.3,1040.43,538.09,1031.88,534.81Z" style="fill:#1a1919"/><path d="M980,553.54a2.6,2.6,0,0,0-3.65-.55l-.46.51a2.57,2.57,0,0,0-.09,3.13,2.62,2.62,0,0,0,3.65.56l0-.06A2.59,2.59,0,0,0,980,553.54Z" style="fill:#1a1919"/><path d="M990.39,542.93a2.62,2.62,0,0,0-1-.79l-.07,0a2.57,2.57,0,0,0-2.55.25,2.61,2.61,0,1,0,3.65.56Z" style="fill:#1a1919"/><path d="M993.83,564.28a2.56,2.56,0,0,0,0,3.07,2.61,2.61,0,0,0,3.65.55,2.56,2.56,0,0,0,.79-3.13l-.24-.51a2.6,2.6,0,0,0-3.64-.56A2.38,2.38,0,0,0,993.83,564.28Z" style="fill:#1a1919"/><path d="M981,561.27a2.61,2.61,0,1,0,3.65.55A2.62,2.62,0,0,0,981,561.27Z" style="fill:#1a1919"/><path d="M395.56,247.77a3.72,3.72,0,1,0,3.23,5.54,3.7,3.7,0,0,0-3.23-5.54Z" style="fill:#1a1919"/><path d="M316.06,873.18a4.81,4.81,0,1,0,4.81,4.81A4.81,4.81,0,0,0,316.06,873.18Z" style="fill:#1a1919"/><path d="M300.46,847.16a4.82,4.82,0,1,0,4.82,4.81A4.81,4.81,0,0,0,300.46,847.16Z" style="fill:#1a1919"/><path d="M307.68,827.16A4.81,4.81,0,1,0,312.5,832,4.81,4.81,0,0,0,307.68,827.16Z" style="fill:#1a1919"/><path d="M399.28,232.32A3.72,3.72,0,1,0,403,236,3.73,3.73,0,0,0,399.28,232.32Z" style="fill:#1a1919"/><path d="M280.67,831.57a4.81,4.81,0,1,0,4.81,4.81A4.82,4.82,0,0,0,280.67,831.57Z" style="fill:#1a1919"/><path d="M349.9,856.79a4.81,4.81,0,1,0,4.81,4.81A4.81,4.81,0,0,0,349.9,856.79Z" style="fill:#1a1919"/><path d="M337.81,872a4.8,4.8,0,0,0-2.38,9,4.73,4.73,0,0,0,2.38.66,4.82,4.82,0,0,0,0-9.63Z" style="fill:#1a1919"/><path d="M337,841.19A4.81,4.81,0,1,0,332.2,846,4.82,4.82,0,0,0,337,841.19Z" style="fill:#1a1919"/><path d="M325.18,855.58A4.82,4.82,0,1,0,330,860.4,4.81,4.81,0,0,0,325.18,855.58Z" style="fill:#1a1919"/><path d="M295.65,867.16a4.81,4.81,0,0,0,0,9.62h.11a4.81,4.81,0,0,0-.11-9.61Z" style="fill:#1a1919"/><path d="M418.37,238.83a3.72,3.72,0,1,0,3.72,3.71A3.72,3.72,0,0,0,418.37,238.83Z" style="fill:#1a1919"/><path d="M427.51,227.71a3.72,3.72,0,1,0-3.72,3.72A3.72,3.72,0,0,0,427.51,227.71Z" style="fill:#1a1919"/><path d="M411.33,252.42a3.71,3.71,0,0,0-3.72,3.71,3.62,3.62,0,0,0,.13.94,3.69,3.69,0,0,0,6.58,1.24,3.66,3.66,0,0,0,.73-2.18A3.72,3.72,0,0,0,411.33,252.42Z" style="fill:#1a1919"/><path d="M404.86,216.87a3.72,3.72,0,1,0,3.72,3.72A3.73,3.73,0,0,0,404.86,216.87Z" style="fill:#1a1919"/><path d="M278.51,849a4.81,4.81,0,0,0-4.81,4.81l0,.26a4.78,4.78,0,0,0,4.78,4.55,4.81,4.81,0,0,0,0-9.62Z" style="fill:#1a1919"/><path d="M1017.78,545.94a2.61,2.61,0,0,0-3.1-4.2,2.61,2.61,0,1,0,3.1,4.2Z" style="fill:#1a1919"/><path d="M1017.39,556.46a2.61,2.61,0,1,0-3.65-.56A2.61,2.61,0,0,0,1017.39,556.46Z" style="fill:#1a1919"/><path d="M428.13,251.49a3.71,3.71,0,0,0-2.66,6.3,3.66,3.66,0,0,0,2.66,1.13,3.71,3.71,0,0,0,3.63-3,3.19,3.19,0,0,0,.09-.77A3.72,3.72,0,0,0,428.13,251.49Z" style="fill:#1a1919"/><path d="M437.46,239.76a3.72,3.72,0,1,0,3.72,3.71A3.72,3.72,0,0,0,437.46,239.76Z" style="fill:#1a1919"/></g></svg>